<svg width="570" height="160" viewBox="0 0 570 160" fill="none" xmlns="http://www.w3.org/2000/svg">
<path d="M88.4 159.6C83.6 159.6 80 157.733 77.6 154C75.2 150.267 73.6 145.667 72.8 140.2C72.5333 138.2 72.2667 136.067 72 133.8C71.8667 131.667 71.8 129.4 71.8 127C71.8 122.333 72.0667 117.333 72.6 112C73.1333 106.533 73.8667 100.933 74.8 95.2C69.7333 100.133 64.2 105 58.2 109.8C52.3333 114.467 46.2 118.333 39.8 121.4C33.5333 124.467 27.2 126 20.8 126C17.4667 126 14.4667 125 11.8 123C9.26667 121 7.66667 117.667 7 113C6.86667 112.067 6.73333 111.2 6.6 110.4C6.6 109.467 6.6 108.533 6.6 107.6C6.6 101.733 7.6 95.6 9.6 89.2C11.6 82.8 14.0667 76.4 17 70C20.0667 63.4667 23.1333 57.0667 26.2 50.8C29.4 44.5333 32.0667 38.7333 34.2 33.4C34.4667 33 34.6 32.6667 34.6 32.4C34.6 32 34.6 31.7333 34.6 31.6C34.6 31.0667 34.4 30.8 34 30.8C33.2 30.8 31.7333 31.6667 29.6 33.4C25.0667 37.1333 20.4 40.3333 15.6 43C10.8 45.6667 6.33333 47.1333 2.2 47.4H2C0.8 47.4 0.2 47 0.2 46.2C0.2 45 1.06667 44.2667 2.8 44C5.06667 43.7333 7.8 42.7333 11 41C14.3333 39.1333 17.8 36.8667 21.4 34.2C25 31.5333 28.4 28.8 31.6 26C34.9333 23.0667 37.7333 20.4 40 18C42.4 15.6 43.9333 13.7333 44.6 12.4C44.8667 11.7333 45.8 11.1333 47.4 10.6C49.1333 10.0667 50.8 9.79999 52.4 9.79999C53.8667 9.79999 55.1333 9.99999 56.2 10.4C57.2667 10.8 57.6667 11.4667 57.4 12.4C56.4667 13.8667 54.6667 16.8 52 21.2C49.4667 25.4667 46.4667 30.6667 43 36.8C39.6667 42.8 36.2667 49.2667 32.8 56.2C29.4667 63.1333 26.4667 70 23.8 76.8C21.2667 83.4667 19.4667 89.5333 18.4 95C18.1333 96.7333 17.9333 98.4 17.8 100C17.6667 101.467 17.6 102.933 17.6 104.4C17.6 109.733 18.5333 113.533 20.4 115.8C22.2667 117.933 24.6 119 27.4 119C30.8667 119 34.6667 118.067 38.8 116.2C43.0667 114.2 47.3333 111.667 51.6 108.6C56 105.4 60.2667 102 64.4 98.4C68.5333 94.8 72.2667 91.3333 75.6 88C76.9333 79.3333 78.5333 70.8667 80.4 62.6C82.4 54.3333 84.4667 46.7333 86.6 39.8C88.8667 32.8667 91.0667 27.2667 93.2 23C96.4 16.0667 100.2 10.6 104.6 6.6C109 2.46666 114.267 0.533328 120.4 0.799999C124.933 1.19999 128.067 2.59999 129.8 4.99999C131.533 7.39999 132.4 10.2 132.4 13.4C132.4 15.8 132 18.3333 131.2 21C129.467 26.8667 126.733 32.8 123 38.8C119.4 44.6667 115.333 50.4667 110.8 56.2C106.267 61.9333 101.733 67.4667 97.2 72.8C92.6667 78.1333 88.6 83.1333 85 87.8C84.3333 91.4 83.6667 95.5333 83 100.2C82.4667 104.733 82 109.2 81.6 113.6C81.3333 118 81.2 121.8 81.2 125C81.2 137.933 83.4 147.133 87.8 152.6C89.4 154.6 91.2667 155.6 93.4 155.6C95 155.6 96.4 154.933 97.6 153.6C98.1333 152.533 98.9333 151.467 100 150.4C100.8 149.6 101.467 149.2 102 149.2C102.933 149.2 103.2 150.067 102.8 151.8C102.667 152.333 102.333 152.933 101.8 153.6C101.4 154.4 100.867 155.133 100.2 155.8C99.2667 157 97.6 157.933 95.2 158.6C92.8 159.267 90.5333 159.6 88.4 159.6ZM88 75.2C92.8 70.6667 97.6667 65.1333 102.6 58.6C107.667 52.0667 112.2 45.2 116.2 38C120.333 30.8 123.267 24 125 17.6C125.267 16.5333 125.467 15.5333 125.6 14.6C125.733 13.5333 125.8 12.6 125.8 11.8C125.8 7.93333 124.6 5.99999 122.2 5.99999C120.2 5.99999 117.733 7.53332 114.8 10.6C107.467 18.7333 101.8 28.3333 97.8 39.4C93.9333 50.3333 90.6667 62.2667 88 75.2ZM160.073 128.6C157.407 129.533 154.673 130 151.873 130C148.273 130 144.673 129.267 141.073 127.8C137.607 126.333 133.94 124.4 130.073 122C127.807 120.667 125.207 119.467 122.273 118.4C119.74 120.133 117.273 121.6 114.873 122.8C112.607 124.133 110.54 124.8 108.673 124.8C107.607 124.8 106.873 124.667 106.473 124.4C105.673 124 105.273 123 105.273 121.4C105.273 119.4 106.273 117.067 108.273 114.4C110.273 111.733 113.673 110.4 118.473 110.4C121.007 110.4 123.673 110.8 126.473 111.6C129.94 108.933 132.007 107.133 132.673 106.2C138.14 101.533 143.607 96.6 149.073 91.4C154.673 86.0667 159.54 81.4 163.673 77.4C160.34 76.3333 157.34 75.4667 154.673 74.8C152.007 74.1333 149.273 73.6 146.473 73.2C145.807 73.0667 145.14 73 144.473 73C143.807 72.8667 143.14 72.8 142.473 72.8C139.407 72.8 136.807 73.3333 134.673 74.4C132.54 75.4667 130.54 76.8667 128.673 78.6C126.407 80.6 124.207 82.8667 122.073 85.4C119.94 87.8 117.94 90.2 116.073 92.6C115.673 93.1333 115.073 93.9333 114.273 95C113.473 95.9333 112.807 96.1333 112.273 95.6C111.74 95.0667 111.473 94.5333 111.473 94C111.473 93.4667 111.673 92.9333 112.073 92.4C115.007 88.4 117.673 84.7333 120.073 81.4C122.607 77.9333 124.473 75.4667 125.673 74C128.207 70.2667 130.74 67.8 133.273 66.6C135.807 65.2667 138.34 64.6 140.873 64.6C143.14 64.6 145.473 64.9333 147.873 65.6C150.273 66.1333 152.74 66.7333 155.273 67.4C157.673 67.9333 160.207 68.5333 162.873 69.2C165.673 69.7333 168.273 70.2667 170.673 70.8C171.74 69.8667 173.607 68.6667 176.273 67.2C179.073 65.7333 181.407 65 183.273 65C185.14 65 186.073 65.9333 186.073 67.8C186.073 70.0667 185.007 72.1333 182.873 74C180.873 75.7333 178.473 77.0667 175.673 78C173.007 78.8 170.74 79 168.873 78.6C164.34 82.4667 158.873 87.1333 152.473 92.6C146.073 97.9333 140.14 103.067 134.673 108C133.873 108.533 133.007 109.2 132.073 110C131.273 110.8 130.34 111.667 129.273 112.6C130.34 113.133 131.34 113.6 132.273 114C133.34 114.4 134.34 114.867 135.273 115.4C139.007 117.667 142.54 119.6 145.873 121.2C149.34 122.8 152.74 123.6 156.073 123.6C159.273 123.6 162.407 122.733 165.473 121C168.273 119.4 171.74 116.867 175.873 113.4C180.007 109.8 184.14 105.867 188.273 101.6C192.407 97.3333 195.74 93.4667 198.273 90C198.673 89.4667 199.34 89.2 200.273 89.2C200.807 89.2 201.207 89.3333 201.473 89.6C201.873 89.7333 201.94 90.0667 201.673 90.6C200.607 92.4667 198.807 94.8667 196.273 97.8C193.873 100.733 191.073 103.867 187.873 107.2C184.673 110.4 181.473 113.467 178.273 116.4C175.073 119.2 172.207 121.533 169.673 123.4C167.273 125.133 165.34 126.333 163.873 127C162.407 127.8 161.14 128.333 160.073 128.6ZM227.053 52.4C225.32 52.4 223.52 52.2667 221.653 52C219.786 51.6 218.853 50.3333 218.853 48.2C218.853 47.8 219.72 46.8667 221.453 45.4C223.32 43.9333 225.186 42.4667 227.053 41C229.053 39.4 230.253 38.4667 230.653 38.2C232.92 36.3333 234.32 35.4 234.853 35.4C235.52 35.4 235.52 36.2667 234.853 38C234.186 39.7333 233.853 41.2667 233.853 42.6C233.853 43.2667 233.453 44.4 232.653 46C231.853 47.6 230.92 49.0667 229.853 50.4C228.786 51.7333 227.853 52.4 227.053 52.4ZM205.253 124C202.853 124 200.653 123.467 198.653 122.4C196.786 121.333 195.386 119.333 194.453 116.4C194.32 116 194.186 115.6 194.053 115.2C194.053 114.8 194.053 114.333 194.053 113.8C194.053 111.133 194.653 107.8 195.853 103.8C197.053 99.8 198.52 95.9333 200.253 92.2C199.453 93.2667 198.52 94.6 197.453 96.2C196.386 97.6667 194.853 99.6 192.853 102C192.32 102.533 191.72 102.8 191.053 102.8C190.12 102.8 189.653 102.267 189.653 101.2C189.653 100.4 189.92 99.7333 190.453 99.2C193.92 94.8 196.986 90.8667 199.653 87.4C202.453 83.9333 204.52 81 205.853 78.6C205.853 78.4667 205.786 78.4 205.653 78.4C205.653 78.2667 205.653 78.1333 205.653 78C205.653 77.6 205.853 77 206.253 76.2C207.32 73 208.386 70.3333 209.453 68.2C210.653 65.9333 211.92 64.6667 213.253 64.4C213.52 64.4 213.786 64.4 214.053 64.4C214.32 64.2667 214.586 64.2 214.853 64.2C216.32 64.2 217.653 64.5333 218.853 65.2C220.053 65.8667 220.653 66.8667 220.653 68.2C220.653 69.4 220.186 70.8667 219.253 72.6C218.453 74.3333 217.386 76.4667 216.053 79C213.12 85.1333 210.453 90.7333 208.053 95.8C205.786 100.733 204.52 104.8 204.253 108C204.12 108.533 204.053 109.067 204.053 109.6C204.053 110 204.053 110.467 204.053 111C204.053 116.333 205.786 119 209.253 119C211.386 119 214.12 117.867 217.453 115.6C220.786 113.2 224.186 110.333 227.653 107C231.12 103.533 234.253 100.267 237.053 97.2C239.986 94 241.986 91.6 243.053 90C243.453 89.6 243.853 89.4 244.253 89.4C244.786 89.4 245.186 89.6 245.453 90C245.853 90.4 245.92 90.9333 245.653 91.6C244.453 93.8667 242.386 96.7333 239.453 100.2C236.653 103.533 233.453 106.933 229.853 110.4C226.386 113.733 222.986 116.6 219.653 119C217.92 120.333 215.72 121.467 213.053 122.4C210.52 123.467 207.92 124 205.253 124ZM237.17 124.6C236.104 124.6 235.77 124.133 236.17 123.2C236.704 122.267 237.637 119.933 238.97 116.2C240.437 112.333 242.037 107.8 243.77 102.6C245.637 97.4 247.437 92.4 249.17 87.6C247.837 89.6 246.37 91.5333 244.77 93.4C243.304 95.2667 242.037 96.8 240.97 98C240.57 98.4 240.304 98.6 240.17 98.6C239.77 98.6 239.57 98.2 239.57 97.4C239.57 95.8 239.97 94.3333 240.77 93C243.57 89.4 245.704 86.6 247.17 84.6C248.637 82.4667 249.837 80.6 250.77 79C251.837 77.2667 252.904 75.3333 253.97 73.2C254.237 71.7333 254.704 69.9333 255.37 67.8C256.17 65.6667 257.97 64.6 260.77 64.6C264.904 64.6 266.97 65.4667 266.97 67.2C266.97 67.7333 266.837 68.3333 266.57 69C266.304 69.5333 266.037 70.1333 265.77 70.8C264.17 74.4 262.437 78.5333 260.57 83.2C258.704 87.8667 256.97 92.2667 255.37 96.4C253.904 100.533 252.77 103.733 251.97 106C253.437 104.133 255.637 101.533 258.57 98.2C261.504 94.7333 264.837 91 268.57 87C272.437 82.8667 276.37 79 280.37 75.4C284.504 71.6667 288.37 68.6 291.97 66.2C295.57 63.8 298.637 62.6 301.17 62.6C304.237 62.6 305.77 64.3333 305.77 67.8C305.77 70.4667 304.704 73.9333 302.57 78.2C301.637 80.2 300.37 82.9333 298.77 86.4C297.17 89.7333 295.904 92.2667 294.97 94C297.37 91.8667 300.104 89.5333 303.17 87C306.237 84.3333 309.437 81.8667 312.77 79.6C316.237 77.3333 319.437 75.6667 322.37 74.6C323.037 74.3333 324.37 73.9333 326.37 73.4C328.37 72.7333 330.104 72.4 331.57 72.4C333.57 72.4 334.57 73.0667 334.57 74.4C334.57 75.3333 334.104 76.3333 333.17 77.4C330.904 80.8667 328.837 84.6 326.97 88.6C325.237 92.4667 323.837 96.1333 322.77 99.6C321.704 103.067 321.037 105.867 320.77 108C320.637 108.533 320.57 109.067 320.57 109.6C320.57 110 320.57 110.467 320.57 111C320.57 116.333 322.304 119 325.77 119C327.904 119 330.637 117.867 333.97 115.6C337.304 113.2 340.704 110.333 344.17 107C347.637 103.533 350.77 100.267 353.57 97.2C356.504 94 358.504 91.6 359.57 90C359.97 89.6 360.37 89.4 360.77 89.4C361.304 89.4 361.704 89.6 361.97 90C362.37 90.4 362.437 90.9333 362.17 91.6C360.97 93.8667 358.904 96.7333 355.97 100.2C353.17 103.533 349.97 106.933 346.37 110.4C342.904 113.733 339.504 116.6 336.17 119C334.437 120.333 332.237 121.467 329.57 122.4C327.037 123.467 324.437 124 321.77 124C319.37 124 317.17 123.467 315.17 122.4C313.304 121.333 311.904 119.333 310.97 116.4C310.57 115.2 310.37 113.667 310.37 111.8C310.37 108.867 310.77 105.533 311.57 101.8C312.37 98.0667 313.237 94.9333 314.17 92.4C314.837 90.5333 315.704 88.4667 316.77 86.2C317.97 83.8 319.037 81.8 319.97 80.2C315.837 81.8 311.837 84.2 307.97 87.4C304.104 90.6 300.57 93.8667 297.37 97.2C294.304 100.4 291.704 103.067 289.57 105.2C289.037 106.667 287.97 107.867 286.37 108.8C284.904 109.733 283.504 110.2 282.17 110.2C280.17 110.2 279.17 109.333 279.17 107.6C279.17 106.933 279.37 106.133 279.77 105.2C281.104 102 282.57 98.7333 284.17 95.4C285.904 91.9333 287.437 88.8 288.77 86C290.237 83.2 291.237 81.2667 291.77 80.2C292.837 78.3333 293.37 76.8667 293.37 75.8C293.37 74.7333 292.904 74.2 291.97 74.2C291.037 74.2 289.504 74.8 287.37 76C285.237 77.2 282.437 79.3333 278.97 82.4C276.17 84.9333 273.104 88.2667 269.77 92.4C266.437 96.4 263.237 100.533 260.17 104.8C257.104 109.067 254.37 112.733 251.97 115.8C249.704 118.867 248.104 120.667 247.17 121.2C246.37 121.6 244.77 122.267 242.37 123.2C240.104 124.133 238.37 124.6 237.17 124.6ZM412.972 124C410.705 124 408.572 123.467 406.572 122.4C404.705 121.333 403.305 119.333 402.372 116.4C401.972 115.2 401.772 113.533 401.772 111.4C401.772 108.467 402.172 105.2 402.972 101.6C403.772 98 404.639 94.9333 405.572 92.4C404.905 92.6667 403.639 93.8667 401.772 96C400.039 98 397.839 100.467 395.172 103.4C392.639 106.2 389.772 109.067 386.572 112C383.505 114.8 380.305 117.133 376.972 119C373.639 120.867 370.372 121.8 367.172 121.8C365.039 121.8 362.772 121.2 360.372 120C357.972 118.667 356.039 117 354.572 115C352.572 112.333 351.572 109.6 351.572 106.8C351.572 103.2 352.772 99.4667 355.172 95.6C357.705 91.7333 360.905 88 364.772 84.4C368.772 80.6667 372.972 77.3333 377.372 74.4C381.905 71.3333 386.172 68.8 390.172 66.8C394.305 64.6667 397.639 63.2667 400.172 62.6C402.839 61.8 405.839 61.4 409.172 61.4C411.039 61.4 412.972 61.6667 414.972 62.2C416.972 62.6 418.639 63.3333 419.972 64.4C421.039 64.9333 421.905 65.6667 422.572 66.6C423.239 67.5333 423.572 68.5333 423.572 69.6C423.572 70.6667 423.105 71 422.172 70.6C421.105 69 419.639 68 417.772 67.6C416.039 67.0667 414.239 66.8 412.372 66.8C407.039 66.8 401.172 68.5333 394.772 72C388.372 75.4667 382.639 79.5333 377.572 84.2C375.972 85.5333 373.772 87.8667 370.972 91.2C368.305 94.4 365.839 97.9333 363.572 101.8C361.305 105.667 360.172 109.2 360.172 112.4C360.172 114.133 360.639 115.667 361.572 117C362.105 117.933 362.972 118.4 364.172 118.4C366.039 118.4 368.505 117.4 371.572 115.4C374.772 113.4 378.039 111 381.372 108.2C384.705 105.267 387.705 102.467 390.372 99.8C393.172 97.1333 395.172 95.2 396.372 94C397.039 93.3333 398.305 92 400.172 90C402.172 87.8667 404.305 85.6 406.572 83.2C408.839 80.8 410.839 78.7333 412.572 77C414.439 75.2667 415.639 74.4 416.172 74.4C416.839 74.4 417.905 74.6 419.372 75C420.972 75.2667 422.305 75.7333 423.372 76.4C424.439 77.0667 424.639 77.9333 423.972 79C420.505 84.0667 417.705 89.4 415.572 95C413.572 100.467 412.372 104.8 411.972 108C411.839 108.533 411.772 109.067 411.772 109.6C411.772 110 411.772 110.467 411.772 111C411.772 116.333 413.639 119 417.372 119C419.372 119 422.039 117.8 425.372 115.4C428.705 113 432.105 110.133 435.572 106.8C439.039 103.467 442.172 100.267 444.972 97.2C447.905 94 449.905 91.6 450.972 90C451.372 89.6 451.772 89.4 452.172 89.4C452.705 89.4 453.172 89.6667 453.572 90.2C453.972 90.6 453.972 91.1333 453.572 91.8C452.105 94.2 449.972 97.0667 447.172 100.4C444.372 103.733 441.239 107.067 437.772 110.4C434.305 113.733 430.905 116.6 427.572 119C425.839 120.333 423.639 121.467 420.972 122.4C418.305 123.467 415.639 124 412.972 124ZM444.397 124.6C443.33 124.6 442.997 124.133 443.397 123.2C443.93 122.267 444.864 119.933 446.197 116.2C447.664 112.333 449.264 107.8 450.997 102.6C452.864 97.4 454.664 92.4 456.397 87.6C455.064 89.6 453.597 91.5333 451.997 93.4C450.53 95.2667 449.264 96.8 448.197 98C447.797 98.4 447.53 98.6 447.397 98.6C446.997 98.6 446.797 98.2 446.797 97.4C446.797 95.8 447.197 94.3333 447.997 93C450.797 89.4 452.93 86.6 454.397 84.6C455.864 82.4667 457.064 80.6 457.997 79C459.064 77.2667 460.13 75.3333 461.197 73.2C461.464 71.7333 461.93 69.9333 462.597 67.8C463.397 65.6667 465.197 64.6 467.997 64.6C472.13 64.6 474.197 65.4667 474.197 67.2C474.197 67.7333 474.064 68.3333 473.797 69C473.53 69.5333 473.264 70.1333 472.997 70.8C471.397 74.4 469.664 78.5333 467.797 83.2C465.93 87.8667 464.197 92.2667 462.597 96.4C461.13 100.533 459.997 103.733 459.197 106C460.664 104.133 462.864 101.533 465.797 98.2C468.73 94.7333 472.064 91 475.797 87C479.664 82.8667 483.597 79 487.597 75.4C491.73 71.6667 495.597 68.6 499.197 66.2C502.797 63.8 505.864 62.6 508.397 62.6C511.464 62.6 512.997 64.3333 512.997 67.8C512.997 70.4667 511.93 73.9333 509.797 78.2C508.864 80.2 507.597 82.9333 505.997 86.4C504.397 89.7333 503.13 92.2667 502.197 94C504.597 91.8667 507.33 89.5333 510.397 87C513.464 84.3333 516.664 81.8667 519.997 79.6C523.464 77.3333 526.664 75.6667 529.597 74.6C530.264 74.3333 531.597 73.9333 533.597 73.4C535.597 72.7333 537.33 72.4 538.797 72.4C540.797 72.4 541.797 73.0667 541.797 74.4C541.797 75.3333 541.33 76.3333 540.397 77.4C538.13 80.8667 536.064 84.6 534.197 88.6C532.464 92.4667 531.064 96.1333 529.997 99.6C528.93 103.067 528.264 105.867 527.997 108C527.864 108.533 527.797 109.067 527.797 109.6C527.797 110 527.797 110.467 527.797 111C527.797 116.333 529.53 119 532.997 119C535.13 119 537.864 117.867 541.197 115.6C544.53 113.2 547.93 110.333 551.397 107C554.864 103.533 557.997 100.267 560.797 97.2C563.73 94 565.73 91.6 566.797 90C567.197 89.6 567.597 89.4 567.997 89.4C568.53 89.4 568.93 89.6 569.197 90C569.597 90.4 569.664 90.9333 569.397 91.6C568.197 93.8667 566.13 96.7333 563.197 100.2C560.397 103.533 557.197 106.933 553.597 110.4C550.13 113.733 546.73 116.6 543.397 119C541.664 120.333 539.464 121.467 536.797 122.4C534.264 123.467 531.664 124 528.997 124C526.597 124 524.397 123.467 522.397 122.4C520.53 121.333 519.13 119.333 518.197 116.4C517.797 115.2 517.597 113.667 517.597 111.8C517.597 108.867 517.997 105.533 518.797 101.8C519.597 98.0667 520.464 94.9333 521.397 92.4C522.064 90.5333 522.93 88.4667 523.997 86.2C525.197 83.8 526.264 81.8 527.197 80.2C523.064 81.8 519.064 84.2 515.197 87.4C511.33 90.6 507.797 93.8667 504.597 97.2C501.53 100.4 498.93 103.067 496.797 105.2C496.264 106.667 495.197 107.867 493.597 108.8C492.13 109.733 490.73 110.2 489.397 110.2C487.397 110.2 486.397 109.333 486.397 107.6C486.397 106.933 486.597 106.133 486.997 105.2C488.33 102 489.797 98.7333 491.397 95.4C493.13 91.9333 494.664 88.8 495.997 86C497.464 83.2 498.464 81.2667 498.997 80.2C500.064 78.3333 500.597 76.8667 500.597 75.8C500.597 74.7333 500.13 74.2 499.197 74.2C498.264 74.2 496.73 74.8 494.597 76C492.464 77.2 489.664 79.3333 486.197 82.4C483.397 84.9333 480.33 88.2667 476.997 92.4C473.664 96.4 470.464 100.533 467.397 104.8C464.33 109.067 461.597 112.733 459.197 115.8C456.93 118.867 455.33 120.667 454.397 121.2C453.597 121.6 451.997 122.267 449.597 123.2C447.33 124.133 445.597 124.6 444.397 124.6Z" fill="white"/>
</svg>
