<svg width="288" height="309" viewBox="0 0 288 309" fill="none" xmlns="http://www.w3.org/2000/svg">
<mask id="path-1-outside-1_22_26" maskUnits="userSpaceOnUse" x="-11.3137" y="-11.3137" width="305.47" height="305.47" fill="black">
<rect fill="white" x="-11.3137" y="-11.3137" width="305.47" height="305.47"/>
<path fill-rule="evenodd" clip-rule="evenodd" d="M141.421 282.843L141.421 282.843L233.908 190.356L233.908 190.356L236.599 187.665C262.139 162.125 262.139 120.717 236.599 95.1779C211.06 69.6384 169.652 69.6384 144.113 95.1779L141.421 97.8693L138.73 95.1781C113.19 69.6386 71.7828 69.6386 46.2433 95.1781C20.7038 120.718 20.7039 162.125 46.2433 187.665L48.9345 190.356L141.421 282.843Z"/>
</mask>
<path d="M141.421 282.843L135.764 288.5L141.421 294.156L147.078 288.5L141.421 282.843ZM141.421 282.843L135.764 288.499L141.421 282.843ZM233.908 190.356L239.565 196.013L245.222 190.356L239.565 184.699L233.908 190.356ZM233.908 190.356L228.251 184.699L222.594 190.356L228.251 196.013L233.908 190.356ZM141.421 97.8693L135.764 103.526L141.421 109.183L147.078 103.526L141.421 97.8693ZM48.9345 190.356L54.5914 184.699L48.9345 190.356ZM147.078 277.186L147.078 277.186L135.764 288.499L135.764 288.5L147.078 277.186ZM228.251 184.699L135.764 277.186L147.078 288.5L239.565 196.013L228.251 184.699ZM228.251 196.013L228.251 196.013L239.565 184.699L239.565 184.699L228.251 196.013ZM230.942 182.008L228.251 184.699L239.565 196.013L242.256 193.321L230.942 182.008ZM230.942 100.835C253.358 123.25 253.358 159.592 230.942 182.008L242.256 193.321C270.92 164.658 270.92 118.185 242.256 89.521L230.942 100.835ZM149.769 100.835C172.185 78.4195 208.527 78.4195 230.942 100.835L242.256 89.521C213.592 60.8574 167.119 60.8574 138.456 89.521L149.769 100.835ZM147.078 103.526L149.769 100.835L138.456 89.521L135.764 92.2124L147.078 103.526ZM133.073 100.835L135.764 103.526L147.078 92.2124L144.387 89.5212L133.073 100.835ZM51.9002 100.835C74.3155 78.4196 110.658 78.4196 133.073 100.835L144.387 89.5212C115.723 60.8576 69.2501 60.8575 40.5865 89.5212L51.9002 100.835ZM51.9002 182.008C29.4849 159.593 29.4849 123.25 51.9002 100.835L40.5865 89.5212C11.9228 118.185 11.9228 164.658 40.5865 193.322L51.9002 182.008ZM54.5914 184.699L51.9002 182.008L40.5865 193.322L43.2777 196.013L54.5914 184.699ZM147.078 277.186L54.5914 184.699L43.2777 196.013L135.764 288.499L147.078 277.186Z" fill="black" mask="url(#path-1-outside-1_22_26)"/>
<path d="M128.42 205.08C128.047 201.533 127.86 197.893 127.86 194.16C127.86 190.333 127.907 186.74 128 183.38C128.187 179.927 128.327 176.753 128.42 173.86C128.607 170.967 128.7 168.633 128.7 166.86C129.167 164.713 130.473 163.22 132.62 162.38C134.86 161.447 137.333 160.98 140.04 160.98C141.627 160.98 143.167 161.12 144.66 161.4C146.247 161.68 147.6 162.1 148.72 162.66C149.933 163.22 150.913 163.873 151.66 164.62C152.407 165.367 152.733 166.253 152.64 167.28V167.56C152.547 168.96 152.267 171.06 151.8 173.86C151.427 176.66 151.053 179.787 150.68 183.24C150.307 186.693 150.027 190.287 149.84 194.02C149.747 197.66 149.84 200.973 150.12 203.96C150.4 210.587 151.24 216.933 152.64 223C154.04 229.067 156.187 234.433 159.08 239.1C162.067 243.767 165.847 247.453 170.42 250.16C174.993 252.96 180.64 254.36 187.36 254.36H189.46C196.273 254.08 202.387 252.727 207.8 250.3C213.213 247.967 217.973 244.84 222.08 240.92C226.187 237.093 229.64 232.66 232.44 227.62C235.333 222.487 237.573 217.073 239.16 211.38C240.747 205.687 241.727 199.853 242.1 193.88C242.473 187.813 242.287 181.933 241.54 176.24C238.553 175.493 235.38 174.933 232.02 174.56C228.66 174.187 225.067 174 221.24 174C219.467 174 217.647 174.047 215.78 174.14C214.007 174.233 212.187 174.373 210.32 174.56C207.52 174.84 204.907 174.98 202.48 174.98C194.36 174.98 187.827 173.767 182.88 171.34C177.933 168.913 174.387 165.88 172.24 162.24C170.093 158.6 169.207 154.68 169.58 150.48C170.047 146.187 171.587 142.267 174.2 138.72C176.813 135.173 180.407 132.233 184.98 129.9C189.553 127.567 194.873 126.447 200.94 126.54C207.847 126.54 214.053 127.8 219.56 130.32C225.067 132.84 229.827 136.293 233.84 140.68C237.947 144.973 241.307 150.013 243.92 155.8C246.533 161.587 248.4 167.7 249.52 174.14C255.96 176.287 261.513 179.18 266.18 182.82C270.94 186.367 274.86 190.427 277.94 195C281.113 199.48 283.447 204.333 284.94 209.56C286.433 214.693 287.087 220.013 286.9 225.52C286.713 233.267 284.893 240.827 281.44 248.2C278.08 255.667 273.18 262.34 266.74 268.22C260.3 274.1 252.367 278.813 242.94 282.36C233.607 286 222.827 287.82 210.6 287.82C202.2 287.82 194.593 287.213 187.78 286C180.967 284.787 174.667 283.153 168.88 281.1C163.187 279.14 157.867 276.853 152.92 274.24C147.973 271.72 143.213 269.153 138.64 266.54C134.067 263.927 129.587 261.36 125.2 258.84C120.72 256.32 116.007 254.08 111.06 252.12C105.18 249.693 99.3933 247.92 93.7 246.8C88.0067 245.773 81.94 245.26 75.5 245.26C67.1 245.26 60.0067 246.147 54.22 247.92C48.4333 249.693 43.7667 251.98 40.22 254.78C36.58 257.58 34.0133 260.753 32.52 264.3C31.0267 267.847 30.3733 271.393 30.56 274.94C30.7467 278.58 31.7733 282.173 33.64 285.72C35.5067 289.267 38.12 292.44 41.48 295.24C44.7467 298.04 48.7133 300.28 53.38 301.96C58.0467 303.733 63.32 304.62 69.2 304.62C81.1467 304.62 91.6 300.607 100.56 292.58C101.027 292.113 101.447 291.88 101.82 291.88C102.567 291.88 103.22 292.3 103.78 293.14C104.247 294.073 104.107 294.913 103.36 295.66C98.4133 300.233 93.14 303.547 87.54 305.6C81.8467 307.747 75.64 308.82 68.92 308.82C62.6667 308.82 56.9733 307.84 51.84 305.88C46.7067 304.013 42.2733 301.493 38.54 298.32C34.8067 295.24 31.9133 291.647 29.86 287.54C27.7133 283.527 26.5 279.373 26.22 275.08C25.94 270.693 26.7333 266.447 28.6 262.34C30.4667 258.233 33.4533 254.593 37.56 251.42C41.5733 248.34 46.8 245.82 53.24 243.86C59.5867 241.993 67.1467 241.06 75.92 241.06C82.5467 241.06 88.6133 241.573 94.12 242.6C99.6267 243.72 104.947 245.213 110.08 247.08C115.12 249.04 120.113 251.327 125.06 253.94C130.007 256.647 135.233 259.587 140.74 262.76C145.22 265.373 149.84 267.893 154.6 270.32C159.453 272.84 164.68 275.08 170.28 277.04C175.88 279 181.947 280.54 188.48 281.66C195.107 282.873 202.48 283.48 210.6 283.48C222.267 283.48 232.533 281.753 241.4 278.3C250.36 274.94 257.827 270.507 263.8 265C269.867 259.493 274.44 253.24 277.52 246.24C280.693 239.333 282.373 232.38 282.56 225.38C282.653 220.62 282.093 215.953 280.88 211.38C279.667 206.713 277.707 202.373 275 198.36C272.387 194.253 268.98 190.52 264.78 187.16C260.673 183.8 255.82 181.047 250.22 178.9C250.873 184.873 250.873 190.987 250.22 197.24C249.66 203.4 248.4 209.42 246.44 215.3C244.48 221.087 241.82 226.547 238.46 231.68C235.193 236.813 231.18 241.34 226.42 245.26C221.753 249.18 216.34 252.307 210.18 254.64C204.02 256.973 197.113 258.28 189.46 258.56H186.94C178.82 258.56 171.353 257.253 164.54 254.64C157.727 252.12 151.753 248.527 146.62 243.86C141.487 239.193 137.333 233.593 134.16 227.06C131.08 220.433 129.167 213.107 128.42 205.08ZM240.7 171.76C239.58 166.16 237.9 160.887 235.66 155.94C233.513 150.9 230.76 146.56 227.4 142.92C224.04 139.187 220.167 136.247 215.78 134.1C211.393 131.953 206.447 130.88 200.94 130.88C195.807 130.787 191.28 131.72 187.36 133.68C183.44 135.547 180.36 137.973 178.12 140.96C175.88 143.947 174.527 147.167 174.06 150.62C173.687 154.073 174.433 157.293 176.3 160.28C178.167 163.267 181.247 165.787 185.54 167.84C189.833 169.8 195.573 170.78 202.76 170.78C205 170.78 207.427 170.64 210.04 170.36C211.907 170.173 213.727 170.033 215.5 169.94C217.367 169.847 219.187 169.8 220.96 169.8C227.867 169.8 234.447 170.453 240.7 171.76ZM134.58 131.58C136.727 131.207 138.5 131.907 139.9 133.68C141.3 135.36 142.093 137.553 142.28 140.26C142.467 139.513 142.84 138.58 143.4 137.46C144.053 136.247 144.847 135.173 145.78 134.24C146.713 133.213 147.74 132.42 148.86 131.86C150.073 131.207 151.287 131.067 152.5 131.44C154.833 132.187 156.047 133.633 156.14 135.78C156.327 137.927 155.72 140.307 154.32 142.92C153.013 145.533 151.147 148.193 148.72 150.9C146.293 153.607 143.68 155.893 140.88 157.76C139.947 157.107 138.827 156.08 137.52 154.68C136.307 153.187 135.093 151.553 133.88 149.78C132.76 147.913 131.78 146 130.94 144.04C130.193 141.987 129.727 140.12 129.54 138.44C129.447 136.667 129.773 135.173 130.52 133.96C131.267 132.747 132.62 131.953 134.58 131.58Z" fill="black"/>
</svg>
