<svg width="340" height="403" viewBox="0 0 340 403" fill="none" xmlns="http://www.w3.org/2000/svg">
<rect x="4" y="47" width="231" height="352" rx="58" fill="white" stroke="black" stroke-width="8"/>
<rect x="105" y="4" width="231" height="352" rx="58" fill="white" stroke="black" stroke-width="8"/>
<line x1="4.85437" y1="162.198" x2="219.854" y2="381.198" stroke="black" stroke-width="8"/>
<rect x="35.1465" y="307.882" width="76.3194" height="40.0928" transform="rotate(-44.3637 35.1465 307.882)" fill="white"/>
<rect x="46.1729" y="331.52" width="76.3194" height="40.0928" transform="rotate(-44.3637 46.1729 331.52)" fill="white"/>
<rect x="82.644" y="345.135" width="66.6531" height="56.6536" transform="rotate(-44.4976 82.644 345.135)" fill="white"/>
<rect x="135.247" y="347.028" width="32.8941" height="56.6536" transform="rotate(-44.3475 135.247 347.028)" fill="white"/>
<line x1="129" y1="184.5" x2="195" y2="184.5" stroke="black" stroke-width="3"/>
<line x1="241" y1="184.5" x2="307" y2="184.5" stroke="black" stroke-width="3"/>
<line x1="129" y1="211.5" x2="195" y2="211.5" stroke="black" stroke-width="3"/>
<line x1="241" y1="211.5" x2="307" y2="211.5" stroke="black" stroke-width="3"/>
<line x1="161" y1="240.5" x2="274" y2="240.5" stroke="black" stroke-width="3"/>
<line x1="161" y1="269.5" x2="274" y2="269.5" stroke="black" stroke-width="3"/>
<mask id="path-14-outside-1_20_3" maskUnits="userSpaceOnUse" x="170.686" y="61.6863" width="93.3381" height="93.3381" fill="black">
<rect fill="white" x="170.686" y="61.6863" width="93.3381" height="93.3381"/>
<path fill-rule="evenodd" clip-rule="evenodd" d="M193.561 119.916L194.234 120.589L217.355 143.711L241.15 119.916C247.535 113.531 247.535 103.179 241.15 96.7945C234.765 90.4097 224.413 90.4097 218.028 96.7945L217.355 97.4674L216.682 96.7945C210.298 90.4097 199.946 90.4096 193.561 96.7945C187.176 103.179 187.176 113.531 193.561 119.916Z"/>
</mask>
<path d="M217.355 143.711L211.698 149.368L217.355 155.024L223.012 149.368L217.355 143.711ZM241.15 119.916L246.807 125.573L246.807 125.573L241.15 119.916ZM218.028 96.7945L212.371 91.1377L218.028 96.7945ZM217.355 97.4674L211.698 103.124L217.355 108.781L223.012 103.124L217.355 97.4674ZM199.891 114.932L199.218 114.259L187.904 125.573L188.577 126.246L199.891 114.932ZM223.012 138.054L199.891 114.932L188.577 126.246L211.698 149.368L223.012 138.054ZM235.493 114.259L211.698 138.054L223.012 149.368L246.807 125.573L235.493 114.259ZM235.493 102.451C238.754 105.712 238.754 110.999 235.493 114.259L246.807 125.573C256.316 116.064 256.316 100.647 246.807 91.1377L235.493 102.451ZM223.685 102.451C226.946 99.1907 232.232 99.1907 235.493 102.451L246.807 91.1377C237.298 81.6286 221.88 81.6286 212.371 91.1377L223.685 102.451ZM223.012 103.124L223.685 102.451L212.371 91.1377L211.698 91.8105L223.012 103.124ZM211.026 102.451L211.698 103.124L223.012 91.8105L222.339 91.1377L211.026 102.451ZM199.218 102.451C202.478 99.1907 207.765 99.1907 211.026 102.451L222.339 91.1377C212.83 81.6286 197.413 81.6286 187.904 91.1377L199.218 102.451ZM199.218 114.259C195.957 110.999 195.957 105.712 199.218 102.451L187.904 91.1377C178.395 100.647 178.395 116.064 187.904 125.573L199.218 114.259Z" fill="black" mask="url(#path-14-outside-1_20_3)"/>
</svg>
