<svg width="512" height="512" viewBox="0 0 512 512" fill="none" xmlns="http://www.w3.org/2000/svg">
<path d="M512 256C512 397.385 397.385 512 256 512C114.615 512 0 397.385 0 256C0 114.615 114.615 0 256 0C397.385 0 512 114.615 512 256Z" fill="#A290AA"/>
<path d="M231.424 484.352C219.136 484.352 209.92 479.573 203.776 470.016C197.632 460.459 193.536 448.683 191.488 434.688C190.805 429.568 190.123 424.107 189.44 418.304C189.099 412.843 188.928 407.04 188.928 400.896C188.928 388.949 189.611 376.149 190.976 362.496C192.341 348.501 194.219 334.165 196.608 319.488C183.637 332.117 169.472 344.576 154.112 356.864C139.093 368.811 123.392 378.709 107.008 386.56C90.9653 394.411 74.752 398.336 58.368 398.336C49.8347 398.336 42.1547 395.776 35.328 390.656C28.8427 385.536 24.7467 377.003 23.04 365.056C22.6987 362.667 22.3573 360.448 22.016 358.4C22.016 356.011 22.016 353.621 22.016 351.232C22.016 336.213 24.576 320.512 29.696 304.128C34.816 287.744 41.1307 271.36 48.64 254.976C56.4907 238.251 64.3413 221.867 72.192 205.824C80.384 189.781 87.2107 174.933 92.672 161.28C93.3547 160.256 93.696 159.403 93.696 158.72C93.696 157.696 93.696 157.013 93.696 156.672C93.696 155.307 93.184 154.624 92.16 154.624C90.112 154.624 86.3573 156.843 80.896 161.28C69.2907 170.837 57.344 179.029 45.056 185.856C32.768 192.683 21.3333 196.437 10.752 197.12H10.24C7.168 197.12 5.632 196.096 5.632 194.048C5.632 190.976 7.85067 189.099 12.288 188.416C18.0907 187.733 25.088 185.173 33.28 180.736C41.8133 175.957 50.688 170.155 59.904 163.328C69.12 156.501 77.824 149.504 86.016 142.336C94.5493 134.827 101.717 128 107.52 121.856C113.664 115.712 117.589 110.933 119.296 107.52C119.979 105.813 122.368 104.277 126.464 102.912C130.901 101.547 135.168 100.864 139.264 100.864C143.019 100.864 146.261 101.376 148.992 102.4C151.723 103.424 152.747 105.131 152.064 107.52C149.675 111.275 145.067 118.784 138.24 130.048C131.755 140.971 124.075 154.283 115.2 169.984C106.667 185.344 97.9627 201.899 89.088 219.648C80.5547 237.397 72.8747 254.976 66.048 272.384C59.5627 289.451 54.9547 304.981 52.224 318.976C51.5413 323.413 51.0293 327.68 50.688 331.776C50.3467 335.531 50.176 339.285 50.176 343.04C50.176 356.693 52.5653 366.421 57.344 372.224C62.1227 377.685 68.096 380.416 75.264 380.416C84.1387 380.416 93.8667 378.027 104.448 373.248C115.371 368.128 126.293 361.643 137.216 353.792C148.48 345.6 159.403 336.896 169.984 327.68C180.565 318.464 190.123 309.589 198.656 301.056C202.069 278.869 206.165 257.195 210.944 236.032C216.064 214.869 221.355 195.413 226.816 177.664C232.619 159.915 238.251 145.579 243.712 134.656C251.904 116.907 261.632 102.912 272.896 92.672C284.16 82.0907 297.643 77.1413 313.344 77.824C324.949 78.848 332.971 82.432 337.408 88.576C341.845 94.72 344.064 101.888 344.064 110.08C344.064 116.224 343.04 122.709 340.992 129.536C336.555 144.555 329.557 159.744 320 175.104C310.784 190.123 300.373 204.971 288.768 219.648C277.163 234.325 265.557 248.491 253.952 262.144C242.347 275.797 231.936 288.597 222.72 300.544C221.013 309.76 219.307 320.341 217.6 332.288C216.235 343.893 215.04 355.328 214.016 366.592C213.333 377.856 212.992 387.584 212.992 395.776C212.992 428.885 218.624 452.437 229.888 466.432C233.984 471.552 238.763 474.112 244.224 474.112C248.32 474.112 251.904 472.405 254.976 468.992C256.341 466.261 258.389 463.531 261.12 460.8C263.168 458.752 264.875 457.728 266.24 457.728C268.629 457.728 269.312 459.947 268.288 464.384C267.947 465.749 267.093 467.285 265.728 468.992C264.704 471.04 263.339 472.917 261.632 474.624C259.243 477.696 254.976 480.085 248.832 481.792C242.688 483.499 236.885 484.352 231.424 484.352ZM230.4 268.288C242.688 256.683 255.147 242.517 267.776 225.792C280.747 209.067 292.352 191.488 302.592 173.056C313.173 154.624 320.683 137.216 325.12 120.832C325.803 118.101 326.315 115.541 326.656 113.152C326.997 110.421 327.168 108.032 327.168 105.984C327.168 96.0853 324.096 91.136 317.952 91.136C312.832 91.136 306.517 95.0613 299.008 102.912C280.235 123.733 265.728 148.309 255.488 176.64C245.589 204.629 237.227 235.179 230.4 268.288Z" fill="white"/>
<path d="M260.147 366.592C259.123 366.592 257.997 366.49 256.768 366.285C255.642 366.08 255.078 365.363 255.078 364.134C255.078 363.622 255.642 362.854 256.768 361.83C257.894 360.704 259.123 359.68 260.454 358.758C261.786 357.734 262.758 357.222 263.373 357.222C264.09 357.222 264.397 357.581 264.294 358.298C264.294 359.014 264.294 359.782 264.294 360.602C264.294 361.011 264.038 361.728 263.526 362.752C263.014 363.674 262.451 364.544 261.837 365.363C261.222 366.182 260.659 366.592 260.147 366.592Z" fill="white"/>
<path d="M292.659 368.282C290.816 368.589 288.972 368.742 287.129 368.742C282.624 368.742 278.886 367.667 275.916 365.517C272.947 363.366 271.462 360.243 271.462 356.147C271.462 353.69 272.179 350.72 273.612 347.238C274.636 344.883 276.531 342.17 279.296 339.098C282.06 336.026 285.286 333.056 288.972 330.189C292.659 327.219 296.396 324.813 300.185 322.97C303.974 321.024 307.404 320.051 310.476 320.051C311.603 320.051 312.627 320.205 313.548 320.512C314.675 320.922 315.648 321.485 316.467 322.202C317.286 322.918 317.696 323.994 317.696 325.427C317.696 325.734 317.696 326.042 317.696 326.349C317.696 326.656 317.593 327.014 317.388 327.424C317.388 327.731 317.132 328.397 316.62 329.421C316.211 330.445 315.699 331.366 315.084 332.186C314.572 332.902 314.112 333.056 313.702 332.646C313.292 332.339 313.088 331.93 313.088 331.418C313.088 330.906 313.19 330.342 313.395 329.728C313.702 329.011 313.856 328.397 313.856 327.885C313.856 327.168 313.651 326.502 313.241 325.888C312.934 325.171 312.371 324.813 311.552 324.813C309.606 324.813 307.097 325.683 304.025 327.424C300.953 329.165 297.779 331.52 294.502 334.49C291.328 337.357 288.46 340.531 285.9 344.013C283.34 347.494 281.548 350.976 280.524 354.458C280.217 355.277 280.012 356.096 279.91 356.915C279.808 357.632 279.756 358.349 279.756 359.066C279.756 361.318 280.473 362.957 281.907 363.981C283.443 364.902 285.286 365.363 287.436 365.363C289.792 365.363 292.198 365.005 294.656 364.288C301.619 362.24 307.251 359.424 311.552 355.84C315.955 352.256 320.358 347.648 324.761 342.016C325.171 341.504 325.529 341.299 325.836 341.402C326.144 341.504 326.4 341.555 326.604 341.555C326.912 341.658 327.065 341.965 327.065 342.477C327.065 342.682 327.014 342.938 326.912 343.245C326.809 343.552 326.707 343.808 326.604 344.013C322.201 349.952 317.337 355.174 312.012 359.68C306.688 364.083 300.236 366.95 292.659 368.282Z" fill="white"/>
<path d="M334.365 368.282C331.498 368.282 328.989 367.616 326.838 366.285C323.254 364.134 321.462 360.243 321.462 354.611C321.462 352.256 321.872 349.542 322.691 346.47C323.408 343.91 324.688 341.146 326.531 338.176C328.374 335.104 330.525 332.186 332.982 329.421C335.542 326.656 338.307 324.403 341.277 322.662C344.246 320.922 347.216 320.051 350.186 320.051C351.414 320.051 352.49 320.205 353.411 320.512C354.64 320.922 355.664 321.69 356.483 322.816C357.405 323.84 357.866 325.171 357.866 326.81C357.866 328.55 357.405 329.523 356.483 329.728C355.664 329.933 355.254 329.728 355.254 329.114C355.254 328.909 355.254 328.704 355.254 328.499C355.357 328.294 355.408 328.141 355.408 328.038C355.408 327.219 355.152 326.502 354.64 325.888C354.23 325.171 353.411 324.813 352.182 324.813C350.544 324.813 348.496 325.683 346.038 327.424C343.683 329.165 341.226 331.52 338.666 334.49C336.208 337.357 334.006 340.531 332.061 344.013C330.218 347.494 328.989 350.976 328.374 354.458C328.272 354.97 328.17 355.482 328.067 355.994C328.067 356.403 328.067 356.864 328.067 357.376C328.067 359.731 328.579 361.728 329.603 363.366C330.73 364.902 332.47 365.67 334.826 365.67C337.693 365.67 340.458 364.595 343.12 362.445C345.782 360.192 348.138 357.53 350.186 354.458C352.336 351.386 353.923 348.672 354.947 346.317C355.766 344.474 356.33 342.886 356.637 341.555C356.944 340.224 357.098 339.098 357.098 338.176C357.098 337.357 356.995 336.64 356.79 336.026C356.688 335.411 356.534 334.899 356.33 334.49C356.125 333.875 356.022 333.414 356.022 333.107C356.022 332.288 356.33 331.622 356.944 331.11C357.661 330.598 358.378 330.342 359.094 330.342C359.709 330.342 360.374 330.547 361.091 330.957C361.91 331.162 363.037 331.315 364.47 331.418C365.904 331.52 367.44 331.571 369.078 331.571C370.819 331.571 372.56 331.52 374.301 331.418C376.144 331.315 377.731 331.11 379.062 330.803C379.267 330.701 379.574 330.65 379.984 330.65C380.701 330.65 381.059 330.854 381.059 331.264C381.059 331.674 380.701 332.032 379.984 332.339C376.4 333.978 373.174 334.848 370.307 334.95C367.542 335.053 365.136 335.104 363.088 335.104C363.293 337.664 362.73 340.429 361.398 343.398C360.067 346.266 358.685 348.826 357.251 351.078C355.51 353.638 353.514 356.25 351.261 358.912C349.008 361.574 346.499 363.827 343.734 365.67C340.97 367.411 337.846 368.282 334.365 368.282Z" fill="white"/>
<path d="M373.023 368.589C372.204 368.589 371.948 368.23 372.255 367.514C372.664 366.797 373.381 365.005 374.405 362.138C375.532 359.168 376.76 355.686 378.092 351.693C379.525 347.699 380.908 343.859 382.239 340.173C381.215 341.709 380.088 343.194 378.86 344.627C377.733 346.061 376.76 347.238 375.941 348.16C375.634 348.467 375.429 348.621 375.327 348.621C375.02 348.621 374.866 348.314 374.866 347.699C374.866 346.47 375.173 345.344 375.788 344.32C377.938 341.555 379.576 339.405 380.703 337.869C381.829 336.23 382.751 334.797 383.468 333.568C384.287 332.237 385.106 330.752 385.925 329.114C386.13 327.987 386.488 326.605 387 324.966C387.615 323.328 388.997 322.509 391.148 322.509C394.322 322.509 395.909 323.174 395.909 324.506C395.909 324.915 395.807 325.376 395.602 325.888C395.397 326.298 395.192 326.758 394.988 327.27C393.759 330.035 392.428 333.21 390.994 336.794C389.56 340.378 388.229 343.757 387 346.931C385.874 350.106 385.004 352.563 384.389 354.304C385.516 352.87 387.205 350.874 389.458 348.314C391.711 345.651 394.271 342.784 397.138 339.712C400.108 336.538 403.128 333.568 406.2 330.803C409.375 327.936 412.344 325.581 415.109 323.738C417.874 321.894 420.229 320.973 422.175 320.973C424.53 320.973 425.708 322.304 425.708 324.966C425.708 327.014 424.888 329.677 423.25 332.954C422.533 334.49 421.56 336.589 420.332 339.251C419.103 341.811 418.13 343.757 417.413 345.088C419.256 343.45 421.356 341.658 423.711 339.712C426.066 337.664 428.524 335.77 431.084 334.029C433.746 332.288 436.204 331.008 438.456 330.189C438.968 329.984 439.992 329.677 441.528 329.267C443.064 328.755 444.396 328.499 445.522 328.499C447.058 328.499 447.826 329.011 447.826 330.035C447.826 330.752 447.468 331.52 446.751 332.339C445.01 335.002 443.423 337.869 441.989 340.941C440.658 343.91 439.583 346.726 438.764 349.389C437.944 352.051 437.432 354.202 437.228 355.84C437.125 356.25 437.074 356.659 437.074 357.069C437.074 357.376 437.074 357.734 437.074 358.144C437.074 362.24 438.405 364.288 441.068 364.288C442.706 364.288 444.805 363.418 447.365 361.677C449.925 359.834 452.536 357.632 455.199 355.072C457.861 352.41 460.268 349.901 462.418 347.546C464.671 345.088 466.207 343.245 467.026 342.016C467.333 341.709 467.64 341.555 467.948 341.555C468.357 341.555 468.664 341.709 468.869 342.016C469.176 342.323 469.228 342.733 469.023 343.245C468.101 344.986 466.514 347.187 464.261 349.85C462.111 352.41 459.653 355.021 456.888 357.683C454.226 360.243 451.615 362.445 449.055 364.288C447.724 365.312 446.034 366.182 443.986 366.899C442.04 367.718 440.044 368.128 437.996 368.128C436.152 368.128 434.463 367.718 432.927 366.899C431.493 366.08 430.418 364.544 429.701 362.291C429.394 361.37 429.24 360.192 429.24 358.758C429.24 356.506 429.548 353.946 430.162 351.078C430.776 348.211 431.442 345.805 432.159 343.859C432.671 342.426 433.336 340.838 434.156 339.098C435.077 337.254 435.896 335.718 436.613 334.49C433.439 335.718 430.367 337.562 427.397 340.019C424.428 342.477 421.714 344.986 419.256 347.546C416.901 350.003 414.904 352.051 413.266 353.69C412.856 354.816 412.037 355.738 410.808 356.454C409.682 357.171 408.607 357.53 407.583 357.53C406.047 357.53 405.279 356.864 405.279 355.533C405.279 355.021 405.432 354.406 405.74 353.69C406.764 351.232 407.89 348.723 409.119 346.163C410.45 343.501 411.628 341.094 412.652 338.944C413.778 336.794 414.546 335.309 414.956 334.49C415.775 333.056 416.184 331.93 416.184 331.11C416.184 330.291 415.826 329.882 415.109 329.882C414.392 329.882 413.215 330.342 411.576 331.264C409.938 332.186 407.788 333.824 405.125 336.179C402.975 338.125 400.62 340.685 398.06 343.859C395.5 346.931 393.042 350.106 390.687 353.382C388.332 356.659 386.232 359.475 384.389 361.83C382.648 364.186 381.42 365.568 380.703 365.978C380.088 366.285 378.86 366.797 377.016 367.514C375.276 368.23 373.944 368.589 373.023 368.589Z" fill="white"/>
</svg>
