<svg width="500" height="625" viewBox="0 0 500 625" fill="none" xmlns="http://www.w3.org/2000/svg">
<circle cx="250" cy="271" r="250" fill="#A290AA"/>
<path d="M226 494C214 494 205 489.333 199 480C193 470.667 189 459.167 187 445.5C186.333 440.5 185.667 435.167 185 429.5C184.667 424.167 184.5 418.5 184.5 412.5C184.5 400.833 185.167 388.333 186.5 375C187.833 361.333 189.667 347.333 192 333C179.333 345.333 165.5 357.5 150.5 369.5C135.833 381.167 120.5 390.833 104.5 398.5C88.8333 406.167 73 410 57 410C48.6667 410 41.1667 407.5 34.5 402.5C28.1667 397.5 24.1667 389.167 22.5 377.5C22.1667 375.167 21.8333 373 21.5 371C21.5 368.667 21.5 366.333 21.5 364C21.5 349.333 24 334 29 318C34 302 40.1667 286 47.5 270C55.1667 253.667 62.8333 237.667 70.5 222C78.5 206.333 85.1667 191.833 90.5 178.5C91.1667 177.5 91.5 176.667 91.5 176C91.5 175 91.5 174.333 91.5 174C91.5 172.667 91 172 90 172C88 172 84.3333 174.167 79 178.5C67.6667 187.833 56 195.833 44 202.5C32 209.167 20.8333 212.833 10.5 213.5H10C7 213.5 5.5 212.5 5.5 210.5C5.5 207.5 7.66667 205.667 12 205C17.6667 204.333 24.5 201.833 32.5 197.5C40.8333 192.833 49.5 187.167 58.5 180.5C67.5 173.833 76 167 84 160C92.3333 152.667 99.3333 146 105 140C111 134 114.833 129.333 116.5 126C117.167 124.333 119.5 122.833 123.5 121.5C127.833 120.167 132 119.5 136 119.5C139.667 119.5 142.833 120 145.5 121C148.167 122 149.167 123.667 148.5 126C146.167 129.667 141.667 137 135 148C128.667 158.667 121.167 171.667 112.5 187C104.167 202 95.6667 218.167 87 235.5C78.6667 252.833 71.1667 270 64.5 287C58.1667 303.667 53.6667 318.833 51 332.5C50.3333 336.833 49.8333 341 49.5 345C49.1667 348.667 49 352.333 49 356C49 369.333 51.3333 378.833 56 384.5C60.6667 389.833 66.5 392.5 73.5 392.5C82.1667 392.5 91.6667 390.167 102 385.5C112.667 380.5 123.333 374.167 134 366.5C145 358.5 155.667 350 166 341C176.333 332 185.667 323.333 194 315C197.333 293.333 201.333 272.167 206 251.5C211 230.833 216.167 211.833 221.5 194.5C227.167 177.167 232.667 163.167 238 152.5C246 135.167 255.5 121.5 266.5 111.5C277.5 101.167 290.667 96.3333 306 97C317.333 98 325.167 101.5 329.5 107.5C333.833 113.5 336 120.5 336 128.5C336 134.5 335 140.833 333 147.5C328.667 162.167 321.833 177 312.5 192C303.5 206.667 293.333 221.167 282 235.5C270.667 249.833 259.333 263.667 248 277C236.667 290.333 226.5 302.833 217.5 314.5C215.833 323.5 214.167 333.833 212.5 345.5C211.167 356.833 210 368 209 379C208.333 390 208 399.5 208 407.5C208 439.833 213.5 462.833 224.5 476.5C228.5 481.5 233.167 484 238.5 484C242.5 484 246 482.333 249 479C250.333 476.333 252.333 473.667 255 471C257 469 258.667 468 260 468C262.333 468 263 470.167 262 474.5C261.667 475.833 260.833 477.333 259.5 479C258.5 481 257.167 482.833 255.5 484.5C253.167 487.5 249 489.833 243 491.5C237 493.167 231.333 494 226 494ZM225 283C237 271.667 249.167 257.833 261.5 241.5C274.167 225.167 285.5 208 295.5 190C305.833 172 313.167 155 317.5 139C318.167 136.333 318.667 133.833 319 131.5C319.333 128.833 319.5 126.5 319.5 124.5C319.5 114.833 316.5 110 310.5 110C305.5 110 299.333 113.833 292 121.5C273.667 141.833 259.5 165.833 249.5 193.5C239.833 220.833 231.667 250.667 225 283Z" fill="white"/>
<path d="M254.05 379C253.05 379 251.95 378.9 250.75 378.7C249.65 378.5 249.1 377.8 249.1 376.6C249.1 376.1 249.65 375.35 250.75 374.35C251.85 373.25 253.05 372.25 254.35 371.35C255.65 370.35 256.6 369.85 257.2 369.85C257.9 369.85 258.2 370.2 258.1 370.9C258.1 371.6 258.1 372.35 258.1 373.15C258.1 373.55 257.85 374.25 257.35 375.25C256.85 376.15 256.3 377 255.7 377.8C255.1 378.6 254.55 379 254.05 379ZM285.8 380.65C284 380.95 282.2 381.1 280.4 381.1C276 381.1 272.35 380.05 269.45 377.95C266.55 375.85 265.1 372.8 265.1 368.8C265.1 366.4 265.8 363.5 267.2 360.1C268.2 357.8 270.05 355.15 272.75 352.15C275.45 349.15 278.6 346.25 282.2 343.45C285.8 340.55 289.45 338.2 293.15 336.4C296.85 334.5 300.2 333.55 303.2 333.55C304.3 333.55 305.3 333.7 306.2 334C307.3 334.4 308.25 334.95 309.05 335.65C309.85 336.35 310.25 337.4 310.25 338.8C310.25 339.1 310.25 339.4 310.25 339.7C310.25 340 310.15 340.35 309.95 340.75C309.95 341.05 309.7 341.7 309.2 342.7C308.8 343.7 308.3 344.6 307.7 345.4C307.2 346.1 306.75 346.25 306.35 345.85C305.95 345.55 305.75 345.15 305.75 344.65C305.75 344.15 305.85 343.6 306.05 343C306.35 342.3 306.5 341.7 306.5 341.2C306.5 340.5 306.3 339.85 305.9 339.25C305.6 338.55 305.05 338.2 304.25 338.2C302.35 338.2 299.9 339.05 296.9 340.75C293.9 342.45 290.8 344.75 287.6 347.65C284.5 350.45 281.7 353.55 279.2 356.95C276.7 360.35 274.95 363.75 273.95 367.15C273.65 367.95 273.45 368.75 273.35 369.55C273.25 370.25 273.2 370.95 273.2 371.65C273.2 373.85 273.9 375.45 275.3 376.45C276.8 377.35 278.6 377.8 280.7 377.8C283 377.8 285.35 377.45 287.75 376.75C294.55 374.75 300.05 372 304.25 368.5C308.55 365 312.85 360.5 317.15 355C317.55 354.5 317.9 354.3 318.2 354.4C318.5 354.5 318.75 354.55 318.95 354.55C319.25 354.65 319.4 354.95 319.4 355.45C319.4 355.65 319.35 355.9 319.25 356.2C319.15 356.5 319.05 356.75 318.95 356.95C314.65 362.75 309.9 367.85 304.7 372.25C299.5 376.55 293.2 379.35 285.8 380.65ZM326.528 380.65C323.728 380.65 321.278 380 319.178 378.7C315.678 376.6 313.928 372.8 313.928 367.3C313.928 365 314.328 362.35 315.128 359.35C315.828 356.85 317.078 354.15 318.878 351.25C320.678 348.25 322.778 345.4 325.178 342.7C327.678 340 330.378 337.8 333.278 336.1C336.178 334.4 339.078 333.55 341.978 333.55C343.178 333.55 344.228 333.7 345.128 334C346.328 334.4 347.328 335.15 348.128 336.25C349.028 337.25 349.478 338.55 349.478 340.15C349.478 341.85 349.028 342.8 348.128 343C347.328 343.2 346.928 343 346.928 342.4C346.928 342.2 346.928 342 346.928 341.8C347.028 341.6 347.078 341.45 347.078 341.35C347.078 340.55 346.828 339.85 346.328 339.25C345.928 338.55 345.128 338.2 343.928 338.2C342.328 338.2 340.328 339.05 337.928 340.75C335.628 342.45 333.228 344.75 330.728 347.65C328.328 350.45 326.178 353.55 324.278 356.95C322.478 360.35 321.278 363.75 320.678 367.15C320.578 367.65 320.478 368.15 320.378 368.65C320.378 369.05 320.378 369.5 320.378 370C320.378 372.3 320.878 374.25 321.878 375.85C322.978 377.35 324.678 378.1 326.978 378.1C329.778 378.1 332.478 377.05 335.078 374.95C337.678 372.75 339.978 370.15 341.978 367.15C344.078 364.15 345.628 361.5 346.628 359.2C347.428 357.4 347.978 355.85 348.278 354.55C348.578 353.25 348.728 352.15 348.728 351.25C348.728 350.45 348.628 349.75 348.428 349.15C348.328 348.55 348.178 348.05 347.978 347.65C347.778 347.05 347.678 346.6 347.678 346.3C347.678 345.5 347.978 344.85 348.578 344.35C349.278 343.85 349.978 343.6 350.678 343.6C351.278 343.6 351.928 343.8 352.628 344.2C353.428 344.4 354.528 344.55 355.928 344.65C357.328 344.75 358.828 344.8 360.428 344.8C362.128 344.8 363.828 344.75 365.528 344.65C367.328 344.55 368.878 344.35 370.178 344.05C370.378 343.95 370.678 343.9 371.078 343.9C371.778 343.9 372.128 344.1 372.128 344.5C372.128 344.9 371.778 345.25 371.078 345.55C367.578 347.15 364.428 348 361.628 348.1C358.928 348.2 356.578 348.25 354.578 348.25C354.778 350.75 354.228 353.45 352.928 356.35C351.628 359.15 350.278 361.65 348.878 363.85C347.178 366.35 345.228 368.9 343.028 371.5C340.828 374.1 338.378 376.3 335.678 378.1C332.978 379.8 329.928 380.65 326.528 380.65ZM364.28 380.95C363.48 380.95 363.23 380.6 363.53 379.9C363.93 379.2 364.63 377.45 365.63 374.65C366.73 371.75 367.93 368.35 369.23 364.45C370.63 360.55 371.98 356.8 373.28 353.2C372.28 354.7 371.18 356.15 369.98 357.55C368.88 358.95 367.93 360.1 367.13 361C366.83 361.3 366.63 361.45 366.53 361.45C366.23 361.45 366.08 361.15 366.08 360.55C366.08 359.35 366.38 358.25 366.98 357.25C369.08 354.55 370.68 352.45 371.78 350.95C372.88 349.35 373.78 347.95 374.48 346.75C375.28 345.45 376.08 344 376.88 342.4C377.08 341.3 377.43 339.95 377.93 338.35C378.53 336.75 379.88 335.95 381.98 335.95C385.08 335.95 386.63 336.6 386.63 337.9C386.63 338.3 386.53 338.75 386.33 339.25C386.13 339.65 385.93 340.1 385.73 340.6C384.53 343.3 383.23 346.4 381.83 349.9C380.43 353.4 379.13 356.7 377.93 359.8C376.83 362.9 375.98 365.3 375.38 367C376.48 365.6 378.13 363.65 380.33 361.15C382.53 358.55 385.03 355.75 387.83 352.75C390.73 349.65 393.68 346.75 396.68 344.05C399.78 341.25 402.68 338.95 405.38 337.15C408.08 335.35 410.38 334.45 412.28 334.45C414.58 334.45 415.73 335.75 415.73 338.35C415.73 340.35 414.93 342.95 413.33 346.15C412.63 347.65 411.68 349.7 410.48 352.3C409.28 354.8 408.33 356.7 407.63 358C409.43 356.4 411.48 354.65 413.78 352.75C416.08 350.75 418.48 348.9 420.98 347.2C423.58 345.5 425.98 344.25 428.18 343.45C428.68 343.25 429.68 342.95 431.18 342.55C432.68 342.05 433.98 341.8 435.08 341.8C436.58 341.8 437.33 342.3 437.33 343.3C437.33 344 436.98 344.75 436.28 345.55C434.58 348.15 433.03 350.95 431.63 353.95C430.33 356.85 429.28 359.6 428.48 362.2C427.68 364.8 427.18 366.9 426.98 368.5C426.88 368.9 426.83 369.3 426.83 369.7C426.83 370 426.83 370.35 426.83 370.75C426.83 374.75 428.13 376.75 430.73 376.75C432.33 376.75 434.38 375.9 436.88 374.2C439.38 372.4 441.93 370.25 444.53 367.75C447.13 365.15 449.48 362.7 451.58 360.4C453.78 358 455.28 356.2 456.08 355C456.38 354.7 456.68 354.55 456.98 354.55C457.38 354.55 457.68 354.7 457.88 355C458.18 355.3 458.23 355.7 458.03 356.2C457.13 357.9 455.58 360.05 453.38 362.65C451.28 365.15 448.88 367.7 446.18 370.3C443.58 372.8 441.03 374.95 438.53 376.75C437.23 377.75 435.58 378.6 433.58 379.3C431.68 380.1 429.73 380.5 427.73 380.5C425.93 380.5 424.28 380.1 422.78 379.3C421.38 378.5 420.33 377 419.63 374.8C419.33 373.9 419.18 372.75 419.18 371.35C419.18 369.15 419.48 366.65 420.08 363.85C420.68 361.05 421.33 358.7 422.03 356.8C422.53 355.4 423.18 353.85 423.98 352.15C424.88 350.35 425.68 348.85 426.38 347.65C423.28 348.85 420.28 350.65 417.38 353.05C414.48 355.45 411.83 357.9 409.43 360.4C407.13 362.8 405.18 364.8 403.58 366.4C403.18 367.5 402.38 368.4 401.18 369.1C400.08 369.8 399.03 370.15 398.03 370.15C396.53 370.15 395.78 369.5 395.78 368.2C395.78 367.7 395.93 367.1 396.23 366.4C397.23 364 398.33 361.55 399.53 359.05C400.83 356.45 401.98 354.1 402.98 352C404.08 349.9 404.83 348.45 405.23 347.65C406.03 346.25 406.43 345.15 406.43 344.35C406.43 343.55 406.08 343.15 405.38 343.15C404.68 343.15 403.53 343.6 401.93 344.5C400.33 345.4 398.23 347 395.63 349.3C393.53 351.2 391.23 353.7 388.73 356.8C386.23 359.8 383.83 362.9 381.53 366.1C379.23 369.3 377.18 372.05 375.38 374.35C373.68 376.65 372.48 378 371.78 378.4C371.18 378.7 369.98 379.2 368.18 379.9C366.48 380.6 365.18 380.95 364.28 380.95Z" fill="white"/>
</svg>
