<svg width="78" height="27" viewBox="0 0 78 27" fill="none" xmlns="http://www.w3.org/2000/svg">
<path d="M-125.624 82.296C-125.112 83.1493 -124.6 83.576 -124.088 83.576C-123.064 83.576 -122.083 82.9787 -121.144 81.784C-120.12 80.504 -119.139 78.8827 -118.2 76.92C-117.261 74.9573 -116.536 73.08 -116.024 71.288C-115.427 69.496 -114.957 68.1307 -114.616 67.192C-114.531 66.7653 -114.445 66.3813 -114.36 66.04C-114.189 65.6133 -114.019 65.1867 -113.848 64.76C-113.677 64.3333 -113.592 63.9493 -113.592 63.608C-113.507 63.1813 -113.421 62.7973 -113.336 62.456C-113.165 61.2613 -113.123 60.0667 -113.208 58.872C-113.208 57.592 -113.165 56.3547 -113.08 55.16C-112.909 53.112 -112.781 51.064 -112.696 49.016C-112.525 46.8827 -112.44 44.8347 -112.44 42.872C-112.44 40.1413 -111.373 38.136 -109.24 36.856C-107.107 35.4907 -104.76 34.808 -102.2 34.808C-99.5547 34.808 -97.1653 35.4907 -95.032 36.856C-92.8133 38.2213 -91.704 40.2693 -91.704 43C-91.8747 44.024 -92.1307 45.6453 -92.472 47.864C-92.728 50.0827 -93.0267 52.6 -93.368 55.416C-93.624 58.1467 -93.8373 61.0053 -94.008 63.992C-94.1787 66.9787 -94.264 69.752 -94.264 72.312C-94.1787 74.7867 -93.9227 76.92 -93.496 78.712C-93.0693 80.504 -92.4293 81.6133 -91.576 82.04C-90.8933 82.296 -90.2533 82.424 -89.656 82.424C-88.12 82.424 -86.6267 81.8267 -85.176 80.632C-83.64 79.352 -82.1893 77.7733 -80.824 75.896C-79.3733 74.0187 -78.008 71.928 -76.728 69.624C-75.448 67.2347 -74.3387 64.9733 -73.4 62.84C-72.376 60.7067 -71.5653 58.7867 -70.968 57.08C-70.2853 55.288 -69.816 54.008 -69.56 53.24C-69.3893 52.8987 -69.176 52.5573 -68.92 52.216C-68.664 51.7893 -68.1947 51.576 -67.512 51.576C-66.744 51.576 -66.232 51.8747 -65.976 52.472C-65.6347 52.984 -65.464 53.5813 -65.464 54.264C-65.8907 55.9707 -66.6587 58.1467 -67.768 60.792C-68.792 63.352 -70.072 66.0827 -71.608 68.984C-73.0587 71.8 -74.7653 74.6587 -76.728 77.56C-78.6053 80.376 -80.6533 82.936 -82.872 85.24C-85.0907 87.544 -87.3947 89.4213 -89.784 90.872C-92.1733 92.2373 -94.648 92.92 -97.208 92.92C-99.768 92.92 -101.987 92.3653 -103.864 91.256C-105.741 90.1467 -107.32 88.696 -108.6 86.904C-109.795 85.112 -110.733 83.1067 -111.416 80.888C-112.099 78.6693 -112.568 76.4507 -112.824 74.232C-113.507 76.024 -114.36 77.9867 -115.384 80.12C-116.323 82.168 -117.475 84.1307 -118.84 86.008C-120.205 87.8853 -121.741 89.464 -123.448 90.744C-125.069 91.9387 -126.861 92.536 -128.824 92.536C-133.005 92.536 -136.333 91.6827 -138.808 89.976C-141.283 88.184 -143.117 85.9227 -144.312 83.192C-145.507 80.4613 -146.275 77.432 -146.616 74.104C-146.957 70.776 -147.128 67.5333 -147.128 64.376C-147.128 60.7067 -147 57.1227 -146.744 53.624C-146.403 50.04 -146.232 46.456 -146.232 42.872C-146.232 41.592 -145.891 40.4827 -145.208 39.544C-144.525 38.52 -143.629 37.6667 -142.52 36.984C-141.411 36.3013 -140.173 35.7893 -138.808 35.448C-137.357 35.1067 -135.907 34.936 -134.456 34.936C-131.725 34.936 -129.379 35.5333 -127.416 36.728C-125.368 37.9227 -124.344 40.0133 -124.344 43C-125.027 47.864 -125.667 52.6853 -126.264 57.464C-126.776 62.2427 -127.032 67.064 -127.032 71.928C-127.032 73.6347 -126.989 75.384 -126.904 77.176C-126.733 78.968 -126.307 80.6747 -125.624 82.296ZM-59.373 183.672C-63.2983 183.672 -66.9677 182.776 -70.381 180.984C-73.8797 179.192 -76.781 176.547 -79.085 173.048C-81.389 169.635 -82.9677 165.411 -83.821 160.376C-84.6743 155.427 -84.461 149.837 -83.181 143.608C-82.2423 139 -80.5357 134.477 -78.061 130.04C-75.5863 125.603 -72.5997 121.251 -69.101 116.984C-65.517 112.717 -61.549 108.579 -57.197 104.568C-52.7597 100.557 -48.109 96.632 -43.245 92.792C-45.1223 90.488 -47.341 88.5253 -49.901 86.904C-52.461 85.1973 -55.4477 83.96 -58.861 83.192C-59.629 83.192 -60.1837 82.9787 -60.525 82.552C-60.781 82.1253 -60.8663 81.6987 -60.781 81.272C-60.6957 80.76 -60.4823 80.3333 -60.141 79.992C-59.7143 79.5653 -59.1597 79.352 -58.477 79.352C-55.661 79.2667 -53.1437 78.2427 -50.925 76.28C-48.621 74.3173 -46.6583 71.8853 -45.037 68.984C-43.3303 65.9973 -41.965 62.7973 -40.941 59.384C-39.917 55.9707 -39.277 52.7707 -39.021 49.784C-38.4237 43.9813 -39.1063 39.5867 -41.069 36.6C-42.9463 33.6133 -45.293 32.12 -48.109 32.12C-50.5837 32.12 -53.0583 33.272 -55.533 35.576C-58.0077 37.88 -60.0983 41.464 -61.805 46.328C-62.7437 48.9733 -63.5117 51.6613 -64.109 54.392C-64.621 57.1227 -65.0903 59.5547 -65.517 61.688C-66.029 62.2853 -66.669 62.584 -67.437 62.584C-68.5463 62.584 -69.5703 61.9867 -70.509 60.792C-71.4477 59.5973 -71.6183 58.1467 -71.021 56.44C-70.6797 54.904 -70.2957 53.24 -69.869 51.448C-69.357 49.5707 -68.7597 47.6507 -68.077 45.688C-66.8823 42.5307 -65.4743 39.8427 -63.853 37.624C-62.1463 35.32 -60.3117 33.4853 -58.349 32.12C-56.301 30.6693 -54.1677 29.6027 -51.949 28.92C-49.645 28.2373 -47.3837 27.896 -45.165 27.896C-42.1783 27.896 -39.3197 28.408 -36.589 29.432C-33.8583 30.456 -31.469 31.9067 -29.421 33.784C-27.2877 35.576 -25.6237 37.752 -24.429 40.312C-23.2343 42.872 -22.7223 45.6453 -22.893 48.632C-22.9783 51.448 -23.6183 54.4773 -24.813 57.72C-26.0077 60.9627 -27.6717 64.12 -29.805 67.192C-31.853 70.264 -34.3277 73.08 -37.229 75.64C-40.1303 78.1147 -43.373 79.9493 -46.957 81.144C-42.2637 82.424 -38.2103 84.1733 -34.797 86.392C-31.3837 83.832 -27.9703 81.016 -24.557 77.944C-21.0583 74.7867 -17.645 71.6293 -14.317 68.472C-10.989 65.3147 -7.789 62.328 -4.717 59.512C-1.64499 56.6107 1.21367 54.2213 3.859 52.344C4.115 52.088 4.41367 51.96 4.755 51.96C5.52301 51.96 6.12034 52.472 6.547 53.496C7.059 54.4347 6.931 55.16 6.163 55.672C3.68834 57.464 0.95767 59.768 -2.029 62.584C-4.93033 65.3147 -8.00233 68.216 -11.245 71.288C-14.4023 74.36 -17.6877 77.4747 -21.101 80.632C-24.429 83.704 -27.757 86.4773 -31.085 88.952C-26.9037 92.1947 -23.5757 96.0347 -21.101 100.472C-18.6263 104.909 -16.877 109.645 -15.853 114.68C-14.829 119.715 -14.5303 124.877 -14.957 130.168C-15.2983 135.544 -16.237 140.792 -17.773 145.912C-19.309 151.032 -21.3997 155.853 -24.045 160.376C-26.6903 164.984 -29.805 168.995 -33.389 172.408C-36.973 175.821 -40.941 178.552 -45.293 180.6C-49.645 182.648 -54.3383 183.672 -59.373 183.672ZM-79.085 144.376C-80.0237 149.24 -80.1517 153.677 -79.469 157.688C-78.8717 161.784 -77.677 165.24 -75.885 168.056C-74.1783 170.957 -72.045 173.133 -69.485 174.584C-66.8397 176.12 -64.109 176.717 -61.293 176.376C-58.477 176.12 -55.661 174.541 -52.845 171.64C-50.029 168.739 -47.469 165.027 -45.165 160.504C-42.7757 156.067 -40.7703 151.032 -39.149 145.4C-37.4423 139.768 -36.2903 134.008 -35.693 128.12C-35.0957 122.317 -35.181 116.643 -35.949 111.096C-36.717 105.549 -38.3383 100.643 -40.813 96.376C-45.421 100.045 -49.8583 103.8 -54.125 107.64C-58.3917 111.565 -62.2317 115.533 -65.645 119.544C-69.0583 123.64 -71.917 127.736 -74.221 131.832C-76.6103 136.013 -78.2317 140.195 -79.085 144.376ZM17.366 91C13.8673 90.9147 11.0513 89.7627 8.918 87.544C6.78467 85.24 5.16333 82.296 4.054 78.712C3.03 75.128 2.34733 71.16 2.006 66.808C1.75 62.456 1.66467 58.1467 1.75 53.88C1.83533 49.6133 1.96333 45.6453 2.134 41.976C2.39 38.3067 2.47533 35.4053 2.39 33.272C2.81667 31.3093 4.01133 29.944 5.974 29.176C8.022 28.3227 10.2833 27.896 12.758 27.896C14.2087 27.896 15.6167 28.024 16.982 28.28C18.4327 28.536 19.67 28.92 20.694 29.432C21.8033 29.944 22.6993 30.5413 23.382 31.224C24.0647 31.9067 24.3633 32.7173 24.278 33.656V33.912C24.1927 35.1067 23.9367 37.0267 23.51 39.672C23.1687 42.232 22.8273 45.0907 22.486 48.248C22.23 51.4053 22.0167 54.648 21.846 57.976C21.7607 61.304 21.846 64.376 22.102 67.192C22.358 69.9227 22.87 72.184 23.638 73.976C24.4913 75.6827 25.7287 76.536 27.35 76.536C28.4593 76.536 29.6113 76.024 30.806 75C32.086 73.8907 33.3233 72.312 34.518 70.264C35.798 68.216 36.95 65.784 37.974 62.968C39.0833 60.0667 40.022 56.824 40.79 53.24C40.8753 52.8987 41.046 52.5573 41.302 52.216C41.6433 51.7893 42.1553 51.576 42.838 51.576C43.5207 51.576 44.0327 51.832 44.374 52.344C44.7153 52.7707 44.886 53.24 44.886 53.752V54.264C43.35 60.664 41.4727 66.2107 39.254 70.904C37.1207 75.512 34.8167 79.3093 32.342 82.296C29.9527 85.2827 27.4353 87.5013 24.79 88.952C22.23 90.3173 19.7553 91 17.366 91ZM7.766 1.016C9.72867 0.674665 11.35 1.31466 12.63 2.936C13.91 4.472 14.6353 6.47733 14.806 8.952C14.9767 8.26933 15.318 7.416 15.83 6.392C16.4273 5.28266 17.1527 4.30133 18.006 3.448C18.8593 2.50933 19.798 1.78399 20.822 1.272C21.9313 0.674665 23.0407 0.546664 24.15 0.887993C26.2833 1.57066 27.3927 2.89333 27.478 4.856C27.6487 6.81866 27.094 8.99466 25.814 11.384C24.6193 13.7733 22.9127 16.2053 20.694 18.68C18.4753 21.1547 16.086 23.2453 13.526 24.952C12.6727 24.3547 11.6487 23.416 10.454 22.136C9.34467 20.7707 8.23533 19.2773 7.126 17.656C6.102 15.9493 5.206 14.2 4.438 12.408C3.75533 10.5307 3.32867 8.82399 3.158 7.28799C3.07267 5.66666 3.37133 4.30133 4.054 3.19199C4.73667 2.08266 5.974 1.35733 7.766 1.016ZM-126.392 287.816C-126.392 290.035 -126.435 292.253 -126.52 294.472C-126.52 296.691 -126.52 298.909 -126.52 301.128C-124.899 296.179 -122.552 292.424 -119.48 289.864C-116.408 287.219 -112.227 285.896 -106.936 285.896C-102.328 285.896 -98.4453 287.048 -95.288 289.352C-92.0453 291.656 -89.656 295.112 -88.12 299.72C-86.4133 295.112 -84.024 291.656 -80.952 289.352C-77.88 287.048 -73.8693 285.896 -68.92 285.896C-62.008 285.896 -56.76 288.499 -53.176 293.704C-49.5067 298.909 -47.8427 306.589 -48.184 316.744C-48.2693 319.133 -48.2693 321.48 -48.184 323.784C-48.0133 326.003 -47.7573 327.965 -47.416 329.672C-46.9893 331.293 -46.4347 332.616 -45.752 333.64C-44.984 334.664 -44.0027 335.176 -42.808 335.176C-41.6987 335.176 -40.5467 334.664 -39.352 333.64C-38.072 332.531 -36.8347 330.952 -35.64 328.904C-34.36 326.856 -33.208 324.424 -32.184 321.608C-31.0747 318.707 -30.136 315.464 -29.368 311.88C-29.2827 311.539 -29.112 311.197 -28.856 310.856C-28.5147 310.429 -28.0027 310.216 -27.32 310.216C-26.6373 310.216 -26.1253 310.472 -25.784 310.984C-25.4427 311.411 -25.272 311.88 -25.272 312.392V312.904C-26.808 319.304 -28.6853 324.851 -30.904 329.544C-33.0373 334.152 -35.3413 337.949 -37.816 340.936C-40.2053 343.923 -42.7227 346.141 -45.368 347.592C-47.928 348.957 -50.4027 349.64 -52.792 349.64C-56.9733 349.555 -60.5147 347.464 -63.416 343.368C-66.3173 339.272 -67.8533 333.384 -68.024 325.704C-67.9387 324.595 -67.896 322.973 -67.896 320.84C-67.8107 318.621 -67.768 316.232 -67.768 313.672C-67.768 311.027 -67.8533 308.339 -68.024 305.608C-68.1947 302.877 -68.4933 300.403 -68.92 298.184C-69.2613 295.965 -69.816 294.173 -70.584 292.808C-71.2667 291.357 -72.2053 290.675 -73.4 290.76C-75.2773 290.845 -76.9413 291.4 -78.392 292.424C-79.8427 293.363 -81.08 294.643 -82.104 296.264C-83.128 297.8 -83.9813 299.592 -84.664 301.64C-85.3467 303.688 -85.9013 305.864 -86.328 308.168C-86.1573 309.533 -86.072 310.941 -86.072 312.392C-85.9867 313.757 -85.9867 315.208 -86.072 316.744C-86.1573 319.987 -86.1147 323.016 -85.944 325.832C-85.688 328.563 -85.1333 330.781 -84.28 332.488C-84.28 334.536 -85.3467 336.072 -87.48 337.096C-89.6133 338.12 -92.0027 338.632 -94.648 338.632C-96.0133 338.632 -97.336 338.504 -98.616 338.248C-99.896 337.907 -101.048 337.48 -102.072 336.968C-103.096 336.371 -103.949 335.645 -104.632 334.792C-105.229 333.853 -105.485 332.829 -105.4 331.72C-105.571 330.781 -105.699 329.843 -105.784 328.904C-105.784 327.88 -105.827 326.813 -105.912 325.704C-105.827 324.595 -105.784 322.973 -105.784 320.84C-105.699 318.621 -105.656 316.232 -105.656 313.672C-105.656 311.027 -105.741 308.339 -105.912 305.608C-106.083 302.877 -106.381 300.403 -106.808 298.184C-107.149 295.965 -107.704 294.173 -108.472 292.808C-109.155 291.357 -110.093 290.675 -111.288 290.76C-113.421 290.845 -115.299 291.528 -116.92 292.808C-118.456 294.003 -119.779 295.581 -120.888 297.544C-121.912 299.507 -122.765 301.768 -123.448 304.328C-124.045 306.803 -124.557 309.363 -124.984 312.008C-125.325 314.653 -125.624 317.256 -125.88 319.816C-126.051 322.376 -126.221 324.723 -126.392 326.856C-126.307 329.757 -126.221 332.659 -126.136 335.56C-126.051 338.376 -125.923 341.277 -125.752 344.264C-125.837 345.117 -126.264 345.928 -127.032 346.696C-127.8 347.379 -128.739 347.933 -129.848 348.36C-130.872 348.787 -132.067 349.128 -133.432 349.384C-134.797 349.64 -136.12 349.768 -137.4 349.768C-139.619 349.768 -141.624 349.427 -143.416 348.744C-145.208 347.976 -146.147 346.824 -146.232 345.288C-146.744 335.475 -147 325.875 -147 316.488C-147.085 307.101 -147.043 297.715 -146.872 288.328C-147.128 287.645 -147 287.091 -146.488 286.664C-145.976 286.237 -145.251 285.853 -144.312 285.512C-143.373 285.171 -142.264 284.957 -140.984 284.872C-139.704 284.701 -138.381 284.616 -137.016 284.616C-135.651 284.616 -134.328 284.701 -133.048 284.872C-131.683 284.957 -130.531 285.171 -129.592 285.512C-128.568 285.768 -127.757 286.109 -127.16 286.536C-126.563 286.877 -126.307 287.304 -126.392 287.816ZM4.31 299.08C3.88334 297.544 3.24334 296.264 2.39 295.24C1.53667 294.216 0.299334 293.619 -1.322 293.448H-1.834C-3.71133 293.448 -5.33267 294.6 -6.698 296.904C-8.06333 299.208 -9.17267 302.109 -10.026 305.608C-10.8793 309.021 -11.434 312.776 -11.69 316.872C-11.946 320.883 -11.9033 324.595 -11.562 328.008C-11.2207 331.421 -10.5807 334.28 -9.642 336.584C-8.618 338.803 -7.338 339.869 -5.802 339.784C-4.60733 339.699 -3.45533 338.461 -2.346 336.072C-1.15133 333.683 -0.0846653 330.995 0.854002 328.008C1.79267 324.936 2.56067 321.992 3.158 319.176C3.84067 316.36 4.22467 314.525 4.31 313.672C4.39534 313.245 4.48067 312.307 4.566 310.856C4.65133 309.405 4.694 307.869 4.694 306.248C4.77934 304.541 4.77934 303.005 4.694 301.64C4.694 300.189 4.566 299.336 4.31 299.08ZM4.95 325.064C4.35267 326.685 3.71267 328.819 3.03 331.464C2.43267 334.024 1.57934 336.541 0.470001 339.016C-0.553998 341.491 -1.87667 343.709 -3.498 345.672C-5.034 347.549 -7.03933 348.659 -9.514 349C-13.1833 349.512 -16.3833 349 -19.114 347.464C-21.8447 345.843 -24.1487 343.624 -26.026 340.808C-27.818 337.992 -29.1833 334.664 -30.122 330.824C-30.9753 326.984 -31.3593 323.059 -31.274 319.048C-31.1887 314.952 -30.5913 310.941 -29.482 307.016C-28.3727 303.091 -26.794 299.592 -24.746 296.52C-22.698 293.363 -20.138 290.845 -17.066 288.968C-13.9087 287.005 -10.282 285.981 -6.186 285.896C-3.96733 285.811 -1.87666 286.237 0.0860023 287.176C2.04867 288.029 3.75534 289.395 5.206 291.272C5.63267 289.309 6.82733 287.944 8.79 287.176C10.838 286.323 13.0993 285.896 15.574 285.896C17.0247 285.896 18.4327 286.024 19.798 286.28C21.2487 286.536 22.486 286.92 23.51 287.432C24.6193 287.944 25.5153 288.541 26.198 289.224C26.8807 289.907 27.1793 290.717 27.094 291.656V291.912C27.0087 293.107 26.7527 295.027 26.326 297.672C25.9847 300.232 25.6433 303.091 25.302 306.248C25.046 309.405 24.8327 312.648 24.662 315.976C24.5767 319.304 24.662 322.376 24.918 325.192C25.174 327.923 25.686 330.184 26.454 331.976C27.3073 333.683 28.5447 334.536 30.166 334.536C31.2753 334.536 32.4273 334.024 33.622 333C34.902 331.891 36.1393 330.312 37.334 328.264C38.614 326.216 39.766 323.784 40.79 320.968C41.8993 318.067 42.838 314.824 43.606 311.24C43.6913 310.899 43.862 310.557 44.118 310.216C44.4593 309.789 44.9713 309.576 45.654 309.576C46.422 309.576 46.934 309.875 47.19 310.472C47.5313 310.984 47.702 311.581 47.702 312.264C46.166 318.664 44.2887 324.211 42.07 328.904C39.9367 333.512 37.6327 337.309 35.158 340.296C32.7687 343.283 30.2513 345.501 27.606 346.952C25.046 348.317 22.5713 349 20.182 349C16.0007 348.915 12.4593 346.824 9.558 342.728C6.65667 338.632 5.12067 332.744 4.95 325.064ZM-68.024 583.704C-67.9387 582.595 -67.896 580.973 -67.896 578.84C-67.8107 576.621 -67.768 574.232 -67.768 571.672C-67.768 569.027 -67.8533 566.339 -68.024 563.608C-68.1947 560.877 -68.4933 558.403 -68.92 556.184C-69.2613 553.965 -69.816 552.173 -70.584 550.808C-71.2667 549.357 -72.2053 548.675 -73.4 548.76C-75.2773 548.845 -76.9413 549.4 -78.392 550.424C-79.8427 551.363 -81.08 552.643 -82.104 554.264C-83.128 555.8 -83.9813 557.592 -84.664 559.64C-85.3467 561.688 -85.9013 563.864 -86.328 566.168C-86.1573 567.533 -86.072 568.941 -86.072 570.392C-85.9867 571.757 -85.9867 573.208 -86.072 574.744C-86.1573 577.987 -86.1147 581.016 -85.944 583.832C-85.688 586.563 -85.1333 588.781 -84.28 590.488C-84.28 592.536 -85.3467 594.072 -87.48 595.096C-89.6133 596.12 -92.0027 596.632 -94.648 596.632C-96.0133 596.632 -97.336 596.504 -98.616 596.248C-99.896 595.907 -101.048 595.48 -102.072 594.968C-103.096 594.371 -103.949 593.645 -104.632 592.792C-105.229 591.853 -105.485 590.829 -105.4 589.72C-105.571 588.781 -105.699 587.843 -105.784 586.904C-105.784 585.88 -105.827 584.813 -105.912 583.704C-105.827 582.595 -105.784 580.973 -105.784 578.84C-105.699 576.621 -105.656 574.232 -105.656 571.672C-105.656 569.027 -105.741 566.339 -105.912 563.608C-106.083 560.877 -106.381 558.403 -106.808 556.184C-107.149 553.965 -107.704 552.173 -108.472 550.808C-109.155 549.357 -110.093 548.675 -111.288 548.76C-113.421 548.845 -115.299 549.528 -116.92 550.808C-118.456 552.003 -119.779 553.581 -120.888 555.544C-121.912 557.507 -122.765 559.768 -123.448 562.328C-124.045 564.803 -124.557 567.363 -124.984 570.008C-125.325 572.653 -125.624 575.256 -125.88 577.816C-126.051 580.376 -126.221 582.723 -126.392 584.856C-126.307 587.757 -126.221 590.659 -126.136 593.56C-126.051 596.376 -125.923 599.277 -125.752 602.264C-125.837 603.117 -126.264 603.928 -127.032 604.696C-127.8 605.379 -128.739 605.933 -129.848 606.36C-130.872 606.787 -132.067 607.128 -133.432 607.384C-134.797 607.64 -136.12 607.768 -137.4 607.768C-139.619 607.768 -141.624 607.427 -143.416 606.744C-145.208 605.976 -146.147 604.824 -146.232 603.288C-146.744 593.475 -147 583.875 -147 574.488C-147.085 565.101 -147.043 555.715 -146.872 546.328C-147.128 545.645 -147 545.091 -146.488 544.664C-145.976 544.237 -145.251 543.853 -144.312 543.512C-143.373 543.171 -142.264 542.957 -140.984 542.872C-139.704 542.701 -138.381 542.616 -137.016 542.616C-135.651 542.616 -134.328 542.701 -133.048 542.872C-131.683 542.957 -130.531 543.171 -129.592 543.512C-128.568 543.768 -127.757 544.109 -127.16 544.536C-126.563 544.877 -126.307 545.304 -126.392 545.816C-126.392 548.035 -126.435 550.253 -126.52 552.472C-126.52 554.691 -126.52 556.909 -126.52 559.128C-124.899 554.179 -122.552 550.424 -119.48 547.864C-116.408 545.219 -112.227 543.896 -106.936 543.896C-102.328 543.896 -98.4453 545.048 -95.288 547.352C-92.0453 549.656 -89.656 553.112 -88.12 557.72C-86.4133 553.112 -84.024 549.656 -80.952 547.352C-77.88 545.048 -73.8693 543.896 -68.92 543.896C-62.008 543.896 -56.76 546.499 -53.176 551.704C-49.5067 556.909 -47.8427 564.589 -48.184 574.744C-48.184 578.584 -48.056 582.637 -47.8 586.904C-47.4587 591.085 -46.8613 595.224 -46.008 599.32C-45.0693 603.331 -43.832 607.128 -42.296 610.712C-40.6747 614.381 -38.584 617.581 -36.024 620.312C-33.464 623.043 -30.392 625.219 -26.808 626.84C-23.224 628.461 -18.9573 629.272 -14.008 629.272H-12.088C-5.85866 629.016 -0.269323 627.779 4.68001 625.56C9.62934 623.427 13.9813 620.568 17.736 616.984C21.4907 613.485 24.648 609.432 27.208 604.824C29.8533 600.131 31.9013 595.181 33.352 589.976C34.8027 584.771 35.6987 579.437 36.04 573.976C36.3813 568.429 36.2107 563.053 35.528 557.848C32.7973 557.165 29.896 556.653 26.824 556.312C23.752 555.971 20.4667 555.8 16.968 555.8C15.3467 555.8 13.6827 555.843 11.976 555.928C10.3547 556.013 8.69067 556.141 6.98401 556.312C4.42401 556.568 2.03468 556.696 -0.18399 556.696C-7.60799 556.696 -13.5813 555.587 -18.104 553.368C-22.6267 551.149 -25.8693 548.376 -27.832 545.048C-29.7947 541.72 -30.6053 538.136 -30.264 534.296C-29.8373 530.371 -28.4293 526.787 -26.04 523.544C-23.6507 520.301 -20.3653 517.613 -16.184 515.48C-12.0027 513.347 -7.13866 512.323 -1.592 512.408C4.72267 512.408 10.3973 513.56 15.432 515.864C20.4667 518.168 24.8187 521.325 28.488 525.336C32.2427 529.261 35.3147 533.869 37.704 539.16C40.0933 544.451 41.8 550.04 42.824 555.928C48.712 557.891 53.7893 560.536 58.056 563.864C62.408 567.107 65.992 570.819 68.808 575C71.7093 579.096 73.8427 583.533 75.208 588.312C76.5733 593.005 77.1707 597.869 77 602.904C76.8293 609.987 75.1653 616.899 72.008 623.64C68.936 630.467 64.456 636.568 58.568 641.944C52.68 647.32 45.4267 651.629 36.808 654.872C28.2747 658.2 18.4187 659.864 7.24001 659.864C-0.439997 659.864 -7.39466 659.309 -13.624 658.2C-19.8533 657.091 -25.6133 655.597 -30.904 653.72C-36.1093 651.928 -40.9733 649.837 -45.496 647.448C-50.0187 645.144 -54.3707 642.797 -58.552 640.408C-62.7333 638.019 -66.872 635.672 -70.968 633.368C-74.9787 631.064 -79.2453 629.016 -83.768 627.224C-89.144 625.005 -94.4347 623.384 -99.64 622.36C-104.845 621.421 -110.392 620.952 -116.28 620.952C-123.96 620.952 -130.445 621.763 -135.736 623.384C-141.027 625.005 -145.293 627.096 -148.536 629.656C-151.864 632.216 -154.211 635.117 -155.576 638.36C-156.941 641.603 -157.539 644.845 -157.368 648.088C-157.197 651.416 -156.259 654.701 -154.552 657.944C-152.845 661.187 -150.456 664.088 -147.384 666.648C-144.397 669.208 -140.771 671.256 -136.504 672.792C-132.237 674.413 -127.416 675.224 -122.04 675.224C-111.117 675.224 -101.56 671.555 -93.368 664.216C-92.9413 663.789 -92.5573 663.576 -92.216 663.576C-91.5333 663.576 -90.9787 663.96 -90.552 664.728C-90.04 665.581 -90.1253 666.349 -90.808 667.032C-95.3307 671.213 -100.195 674.243 -105.4 676.12C-110.52 678.083 -116.152 679.064 -122.296 679.064C-128.013 679.064 -133.219 678.168 -137.912 676.376C-142.605 674.669 -146.659 672.365 -150.072 669.464C-153.485 666.648 -156.131 663.363 -158.008 659.608C-159.971 655.939 -161.08 652.141 -161.336 648.216C-161.592 644.205 -160.867 640.323 -159.16 636.568C-157.453 632.813 -154.723 629.485 -150.968 626.584C-147.299 623.768 -142.563 621.464 -136.76 619.672C-130.872 617.965 -123.917 617.112 -115.896 617.112C-109.837 617.112 -104.291 617.581 -99.256 618.52C-94.2213 619.544 -89.4 620.909 -84.792 622.616C-80.0987 624.408 -75.4907 626.499 -70.968 628.888C-66.4453 631.363 -61.6667 634.051 -56.632 636.952C-52.536 639.341 -48.312 641.645 -43.96 643.864C-39.5227 646.168 -34.744 648.216 -29.624 650.008C-24.504 651.8 -18.9573 653.208 -12.984 654.232C-6.92533 655.341 -0.183996 655.896 7.24001 655.896C17.9067 655.896 27.2933 654.317 35.4 651.16C43.592 648.088 50.4187 644.035 55.88 639C61.4267 633.965 65.608 628.248 68.424 621.848C71.3253 615.533 72.8613 609.176 73.032 602.776C73.1173 598.424 72.6053 594.157 71.496 589.976C70.3867 585.709 68.5947 581.741 66.12 578.072C63.7307 574.317 60.616 570.904 56.776 567.832C53.0213 564.76 48.584 562.243 43.464 560.28C44.0613 565.741 44.0613 571.331 43.464 577.048C42.952 582.68 41.8 588.184 40.008 593.56C38.216 598.851 35.784 603.843 32.712 608.536C29.7253 613.229 26.056 617.368 21.704 620.952C17.4373 624.536 12.488 627.395 6.856 629.528C1.224 631.661 -5.09066 632.856 -12.088 633.112H-14.264C-21.6027 633.112 -28.6 631.875 -35.256 629.4C-41.8267 627.011 -47.5867 623.64 -52.536 619.288C-57.4 614.936 -61.24 609.731 -64.056 603.672C-66.872 597.613 -68.1947 590.957 -68.024 583.704ZM34.76 553.752C33.736 548.632 32.2 543.811 30.152 539.288C28.1893 534.68 25.672 530.712 22.6 527.384C19.528 523.971 15.9867 521.283 11.976 519.32C7.96534 517.357 3.44267 516.376 -1.592 516.376C-6.28532 516.291 -10.424 517.144 -14.008 518.936C-17.592 520.643 -20.408 522.861 -22.456 525.592C-24.504 528.323 -25.7413 531.267 -26.168 534.424C-26.5093 537.581 -25.8267 540.525 -24.12 543.256C-22.4133 545.987 -19.5973 548.291 -15.672 550.168C-11.7467 551.96 -6.49866 552.856 0.0720062 552.856C2.12001 552.856 4.33868 552.728 6.72801 552.472C8.43468 552.301 10.0987 552.173 11.72 552.088C13.4267 552.003 15.0907 551.96 16.712 551.96C23.0267 551.96 29.0427 552.557 34.76 553.752Z" fill="#EBC8B4"/>
</svg>
