<svg width="226" height="139" viewBox="0 0 226 139" fill="none" xmlns="http://www.w3.org/2000/svg">
<mask id="path-1-outside-1_8_26" maskUnits="userSpaceOnUse" x="1" y="23" width="226" height="85" fill="black">
<rect fill="white" x="1" y="23" width="226" height="85"/>
<path d="M35.968 24.44L57.6 84.088L75.52 24.44H110.976V25.72C103.211 25.72 98.0907 26.232 95.616 27.256C94.7627 27.5973 94.2507 27.9387 94.08 28.28C93.6533 29.048 93.44 30.584 93.44 32.888V98.424C93.44 100.984 93.6107 102.563 93.952 103.16C94.1227 103.501 94.72 103.885 95.744 104.312C96.8533 104.653 98.7307 104.952 101.376 105.208C104.021 105.464 107.221 105.592 110.976 105.592V107H61.696V105.592C64.768 105.592 67.584 105.464 70.144 105.208C72.7893 104.952 74.5813 104.653 75.52 104.312C76.544 103.885 77.1413 103.501 77.312 103.16C77.6533 102.477 77.824 100.899 77.824 98.424L77.696 28.792C77.696 27.3413 77.5253 26.616 77.184 26.616C76.8427 26.616 76.4587 27.256 76.032 28.536L52.608 107H49.792L22.144 28.408L21.12 26.488C20.864 26.488 20.736 27.2133 20.736 28.664V82.296C20.736 91.768 21.9733 98.04 24.448 101.112C27.008 104.099 31.7867 105.592 38.784 105.592V107H2.56V105.592C8.53333 105.592 12.7573 104.056 15.232 100.984C17.7067 97.912 18.944 92.7067 18.944 85.368V45.816C18.944 38.3067 17.792 33.1013 15.488 30.2C13.184 27.2133 8.87467 25.72 2.56 25.72V24.312L35.968 24.44ZM208.462 32.632V98.424C208.462 100.899 208.633 102.477 208.974 103.16C209.145 103.501 209.657 103.843 210.51 104.184C212.985 105.123 218.062 105.592 225.742 105.592V107H175.31V105.592C178.979 105.592 182.137 105.464 184.782 105.208C187.513 104.952 189.347 104.653 190.286 104.312C191.31 103.885 191.95 103.416 192.206 102.904C192.547 102.307 192.718 100.813 192.718 98.424V32.632C192.718 30.2427 192.547 28.7493 192.206 28.152C192.035 27.8107 191.481 27.4693 190.542 27.128C188.067 26.1893 182.99 25.72 175.31 25.72V24.44H225.87V25.72C222.201 25.72 219.001 25.848 216.27 26.104C213.625 26.36 211.747 26.7013 210.638 27.128L209.358 27.64C208.761 28.152 208.462 29.816 208.462 32.632Z"/>
</mask>
<path d="M35.968 24.44L57.6 84.088L75.52 24.44H110.976V25.72C103.211 25.72 98.0907 26.232 95.616 27.256C94.7627 27.5973 94.2507 27.9387 94.08 28.28C93.6533 29.048 93.44 30.584 93.44 32.888V98.424C93.44 100.984 93.6107 102.563 93.952 103.16C94.1227 103.501 94.72 103.885 95.744 104.312C96.8533 104.653 98.7307 104.952 101.376 105.208C104.021 105.464 107.221 105.592 110.976 105.592V107H61.696V105.592C64.768 105.592 67.584 105.464 70.144 105.208C72.7893 104.952 74.5813 104.653 75.52 104.312C76.544 103.885 77.1413 103.501 77.312 103.16C77.6533 102.477 77.824 100.899 77.824 98.424L77.696 28.792C77.696 27.3413 77.5253 26.616 77.184 26.616C76.8427 26.616 76.4587 27.256 76.032 28.536L52.608 107H49.792L22.144 28.408L21.12 26.488C20.864 26.488 20.736 27.2133 20.736 28.664V82.296C20.736 91.768 21.9733 98.04 24.448 101.112C27.008 104.099 31.7867 105.592 38.784 105.592V107H2.56V105.592C8.53333 105.592 12.7573 104.056 15.232 100.984C17.7067 97.912 18.944 92.7067 18.944 85.368V45.816C18.944 38.3067 17.792 33.1013 15.488 30.2C13.184 27.2133 8.87467 25.72 2.56 25.72V24.312L35.968 24.44ZM208.462 32.632V98.424C208.462 100.899 208.633 102.477 208.974 103.16C209.145 103.501 209.657 103.843 210.51 104.184C212.985 105.123 218.062 105.592 225.742 105.592V107H175.31V105.592C178.979 105.592 182.137 105.464 184.782 105.208C187.513 104.952 189.347 104.653 190.286 104.312C191.31 103.885 191.95 103.416 192.206 102.904C192.547 102.307 192.718 100.813 192.718 98.424V32.632C192.718 30.2427 192.547 28.7493 192.206 28.152C192.035 27.8107 191.481 27.4693 190.542 27.128C188.067 26.1893 182.99 25.72 175.31 25.72V24.44H225.87V25.72C222.201 25.72 219.001 25.848 216.27 26.104C213.625 26.36 211.747 26.7013 210.638 27.128L209.358 27.64C208.761 28.152 208.462 29.816 208.462 32.632Z" fill="#EBC8B4"/>
<path d="M35.968 24.44L36.9081 24.0991L36.67 23.4427L35.9718 23.44L35.968 24.44ZM57.6 84.088L56.6599 84.4289L57.6891 87.2669L58.5577 84.3757L57.6 84.088ZM75.52 24.44V23.44H74.7763L74.5623 24.1523L75.52 24.44ZM110.976 24.44H111.976V23.44H110.976V24.44ZM110.976 25.72V26.72H111.976V25.72H110.976ZM95.616 27.256L95.9874 28.1845L95.9984 28.18L95.616 27.256ZM94.08 28.28L94.9542 28.7656L94.9647 28.7466L94.9744 28.7272L94.08 28.28ZM93.952 103.16L94.8464 102.713L94.834 102.688L94.8202 102.664L93.952 103.16ZM95.744 104.312L95.3594 105.235L95.4039 105.254L95.4499 105.268L95.744 104.312ZM101.376 105.208L101.472 104.213L101.472 104.213L101.376 105.208ZM110.976 105.592H111.976V104.592H110.976V105.592ZM110.976 107V108H111.976V107H110.976ZM61.696 107H60.696V108H61.696V107ZM61.696 105.592V104.592H60.696V105.592H61.696ZM70.144 105.208L70.0477 104.213L70.0445 104.213L70.144 105.208ZM75.52 104.312L75.8617 105.252L75.8834 105.244L75.9046 105.235L75.52 104.312ZM77.312 103.16L76.4176 102.713L76.4176 102.713L77.312 103.16ZM77.824 98.424L78.824 98.424L78.824 98.4222L77.824 98.424ZM77.696 28.792H76.696L76.696 28.7938L77.696 28.792ZM76.032 28.536L75.0833 28.2198L75.0783 28.2348L75.0738 28.2499L76.032 28.536ZM52.608 107V108H53.3531L53.5662 107.286L52.608 107ZM49.792 107L48.8487 107.332L49.0837 108H49.792V107ZM22.144 28.408L23.0873 28.0761L23.0621 28.0045L23.0264 27.9374L22.144 28.408ZM21.12 26.488L22.0024 26.0174L21.72 25.488H21.12V26.488ZM24.448 101.112L23.6692 101.739L23.6788 101.751L23.6887 101.763L24.448 101.112ZM38.784 105.592H39.784V104.592H38.784V105.592ZM38.784 107V108H39.784V107H38.784ZM2.56 107H1.56V108H2.56V107ZM2.56 105.592V104.592H1.56V105.592H2.56ZM15.232 100.984L16.0108 101.611L15.232 100.984ZM15.488 30.2L14.6961 30.8109L14.7049 30.8219L15.488 30.2ZM2.56 25.72H1.56V26.72H2.56V25.72ZM2.56 24.312L2.56383 23.312L1.56 23.3082V24.312H2.56ZM35.0279 24.7809L56.6599 84.4289L58.5401 83.7471L36.9081 24.0991L35.0279 24.7809ZM58.5577 84.3757L76.4777 24.7277L74.5623 24.1523L56.6423 83.8003L58.5577 84.3757ZM75.52 25.44H110.976V23.44H75.52V25.44ZM109.976 24.44V25.72H111.976V24.44H109.976ZM110.976 24.72C107.075 24.72 103.818 24.8484 101.213 25.109C98.6273 25.3675 96.61 25.7625 95.2337 26.332L95.9984 28.18C97.0967 27.7255 98.8767 27.3525 101.412 27.099C103.926 26.8475 107.112 26.72 110.976 26.72V24.72ZM95.2446 26.3275C94.7819 26.5126 94.3716 26.7131 94.0373 26.9359C93.7162 27.15 93.3826 27.4388 93.1856 27.8328L94.9744 28.7272C94.9481 28.7799 94.9558 28.7273 95.1467 28.6C95.3244 28.4816 95.5968 28.3407 95.9874 28.1845L95.2446 26.3275ZM93.2058 27.7944C92.9033 28.3389 92.7222 29.0591 92.6095 29.8704C92.4943 30.7001 92.44 31.7098 92.44 32.888H94.44C94.44 31.7622 94.4924 30.8519 94.5905 30.1456C94.6911 29.4209 94.83 28.9891 94.9542 28.7656L93.2058 27.7944ZM92.44 32.888V98.424H94.44V32.888H92.44ZM92.44 98.424C92.44 99.7211 92.483 100.796 92.5738 101.635C92.6595 102.428 92.8002 103.16 93.0838 103.656L94.8202 102.664C94.7625 102.563 94.6472 102.206 94.5622 101.421C94.4823 100.682 94.44 99.6869 94.44 98.424H92.44ZM93.0576 103.607C93.2665 104.025 93.6476 104.327 93.9872 104.545C94.3549 104.782 94.8197 105.01 95.3594 105.235L96.1286 103.389C95.6444 103.187 95.2984 103.01 95.0688 102.863C94.8111 102.697 94.8082 102.636 94.8464 102.713L93.0576 103.607ZM95.4499 105.268C96.6646 105.642 98.6306 105.947 101.28 106.203L101.472 104.213C98.8307 103.957 97.0421 103.665 96.0381 103.356L95.4499 105.268ZM101.28 106.203C103.967 106.463 107.201 106.592 110.976 106.592V104.592C107.242 104.592 104.076 104.465 101.472 104.213L101.28 106.203ZM109.976 105.592V107H111.976V105.592H109.976ZM110.976 106H61.696V108H110.976V106ZM62.696 107V105.592H60.696V107H62.696ZM61.696 106.592C64.7951 106.592 67.6448 106.463 70.2435 106.203L70.0445 104.213C67.5232 104.465 64.7409 104.592 61.696 104.592V106.592ZM70.2403 106.203C72.8752 105.948 74.7878 105.642 75.8617 105.252L75.1783 103.372C74.3748 103.664 72.7035 103.956 70.0477 104.213L70.2403 106.203ZM75.9046 105.235C76.4444 105.01 76.9091 104.782 77.2768 104.545C77.6165 104.327 77.9975 104.025 78.2064 103.607L76.4176 102.713C76.4559 102.636 76.4529 102.697 76.1952 102.863C75.9656 103.01 75.6197 103.187 75.1354 103.389L75.9046 105.235ZM78.2064 103.607C78.4618 103.097 78.6029 102.379 78.6902 101.571C78.7809 100.733 78.824 99.6798 78.824 98.424H76.824C76.824 99.6429 76.7818 100.617 76.7018 101.357C76.6185 102.127 76.5036 102.541 76.4176 102.713L78.2064 103.607ZM78.824 98.4222L78.696 28.7902L76.696 28.7938L76.824 98.4258L78.824 98.4222ZM78.696 28.792C78.696 28.0476 78.654 27.4096 78.5414 26.931C78.4866 26.698 78.3965 26.4184 78.225 26.1753C78.0359 25.9075 77.6891 25.616 77.184 25.616V27.616C76.8496 27.616 76.6521 27.4152 76.591 27.3287C76.5475 27.267 76.5641 27.2594 76.5946 27.389C76.6526 27.6358 76.696 28.0857 76.696 28.792H78.696ZM77.184 25.616C76.7702 25.616 76.4562 25.8116 76.2584 25.9862C76.0608 26.1605 75.9059 26.3758 75.7825 26.5815C75.5343 26.9951 75.3044 27.5565 75.0833 28.2198L76.9807 28.8522C77.1863 28.2355 77.3617 27.8368 77.4975 27.6105C77.5661 27.4962 77.5978 27.4715 77.5816 27.4858C77.5652 27.5004 77.4271 27.616 77.184 27.616V25.616ZM75.0738 28.2499L51.6498 106.714L53.5662 107.286L76.9902 28.8221L75.0738 28.2499ZM52.608 106H49.792V108H52.608V106ZM50.7353 106.668L23.0873 28.0761L21.2007 28.7399L48.8487 107.332L50.7353 106.668ZM23.0264 27.9374L22.0024 26.0174L20.2376 26.9586L21.2616 28.8786L23.0264 27.9374ZM21.12 25.488C20.4954 25.488 20.1773 25.95 20.0682 26.1561C19.9472 26.3847 19.8854 26.6421 19.8472 26.8582C19.7675 27.3098 19.736 27.9249 19.736 28.664H21.736C21.736 27.9524 21.7685 27.4796 21.8168 27.2058C21.8426 27.0593 21.8608 27.0446 21.8358 27.0919C21.8227 27.1167 21.6166 27.488 21.12 27.488V25.488ZM19.736 28.664V82.296H21.736V28.664H19.736ZM19.736 82.296C19.736 87.0691 20.0472 91.0753 20.6829 94.2975C21.3156 97.5046 22.2861 100.022 23.6692 101.739L25.2268 100.485C24.1352 99.1297 23.2497 96.9754 22.6451 93.9105C22.0434 90.8607 21.736 86.9949 21.736 82.296H19.736ZM23.6887 101.763C26.5438 105.094 31.7086 106.592 38.784 106.592V104.592C31.8648 104.592 27.4722 103.104 25.2073 100.461L23.6887 101.763ZM37.784 105.592V107H39.784V105.592H37.784ZM38.784 106H2.56V108H38.784V106ZM3.56 107V105.592H1.56V107H3.56ZM2.56 106.592C8.67725 106.592 13.2651 105.02 16.0108 101.611L14.4532 100.357C12.2495 103.092 8.38941 104.592 2.56 104.592V106.592ZM16.0108 101.611C18.7081 98.2629 19.944 92.7634 19.944 85.368H17.944C17.944 92.6499 16.7052 97.5611 14.4532 100.357L16.0108 101.611ZM19.944 85.368V45.816H17.944V85.368H19.944ZM19.944 45.816C19.944 38.2748 18.8013 32.7643 16.2711 29.5781L14.7049 30.8219C16.7827 33.4384 17.944 38.3385 17.944 45.816H19.944ZM16.2798 29.5892C13.6889 26.2306 8.97903 24.72 2.56 24.72V26.72C8.77031 26.72 12.6791 28.1961 14.6962 30.8108L16.2798 29.5892ZM3.56 25.72V24.312H1.56V25.72H3.56ZM2.55617 25.312L35.9642 25.44L35.9718 23.44L2.56383 23.312L2.55617 25.312ZM208.974 103.16L208.08 103.607L208.974 103.16ZM210.51 104.184L210.139 105.112L210.147 105.116L210.155 105.119L210.51 104.184ZM225.742 105.592H226.742V104.592H225.742V105.592ZM225.742 107V108H226.742V107H225.742ZM175.31 107H174.31V108H175.31V107ZM175.31 105.592V104.592H174.31V105.592H175.31ZM184.782 105.208L184.689 104.212L184.686 104.213L184.782 105.208ZM190.286 104.312L190.628 105.252L190.649 105.244L190.671 105.235L190.286 104.312ZM192.206 102.904L191.338 102.408L191.324 102.432L191.312 102.457L192.206 102.904ZM192.206 28.152L191.312 28.5992L191.324 28.624L191.338 28.6481L192.206 28.152ZM190.542 27.128L190.187 28.0631L190.2 28.0678L190.542 27.128ZM175.31 25.72H174.31V26.72H175.31V25.72ZM175.31 24.44V23.44H174.31V24.44H175.31ZM225.87 24.44H226.87V23.44H225.87V24.44ZM225.87 25.72V26.72H226.87V25.72H225.87ZM216.27 26.104L216.177 25.1084L216.174 25.1086L216.27 26.104ZM210.638 27.128L210.279 26.1946L210.267 26.1995L210.638 27.128ZM209.358 27.64L208.987 26.7115L208.833 26.773L208.707 26.8807L209.358 27.64ZM207.462 32.632V98.424H209.462V32.632H207.462ZM207.462 98.424C207.462 99.6798 207.505 100.733 207.596 101.571C207.683 102.379 207.824 103.097 208.08 103.607L209.868 102.713C209.782 102.541 209.668 102.127 209.584 101.357C209.504 100.617 209.462 99.6429 209.462 98.424H207.462ZM208.08 103.607C208.277 104.001 208.61 104.29 208.931 104.504C209.266 104.727 209.676 104.927 210.139 105.112L210.881 103.256C210.491 103.099 210.218 102.958 210.041 102.84C209.85 102.713 209.842 102.66 209.868 102.713L208.08 103.607ZM210.155 105.119C211.523 105.638 213.52 105.999 216.082 106.236C218.662 106.474 221.885 106.592 225.742 106.592V104.592C221.919 104.592 218.763 104.475 216.266 104.244C213.75 104.012 211.972 103.669 210.865 103.249L210.155 105.119ZM224.742 105.592V107H226.742V105.592H224.742ZM225.742 106H175.31V108H225.742V106ZM176.31 107V105.592H174.31V107H176.31ZM175.31 106.592C179 106.592 182.192 106.463 184.878 106.203L184.686 104.213C182.082 104.465 178.958 104.592 175.31 104.592V106.592ZM184.875 106.204C187.592 105.949 189.551 105.643 190.628 105.252L189.944 103.372C189.144 103.663 187.433 103.955 184.689 104.212L184.875 106.204ZM190.671 105.235C191.737 104.791 192.674 104.204 193.1 103.351L191.312 102.457C191.226 102.628 190.883 102.98 189.901 103.389L190.671 105.235ZM193.074 103.4C193.354 102.91 193.497 102.209 193.584 101.45C193.675 100.65 193.718 99.6373 193.718 98.424H191.718C191.718 99.6 191.676 100.529 191.596 101.222C191.513 101.957 191.399 102.3 191.338 102.408L193.074 103.4ZM193.718 98.424V32.632H191.718V98.424H193.718ZM193.718 32.632C193.718 31.4187 193.675 30.4061 193.584 29.6064C193.497 28.8473 193.354 28.1456 193.074 27.6559L191.338 28.6481C191.399 28.7557 191.513 29.0993 191.596 29.8335C191.676 30.5273 191.718 31.456 191.718 32.632H193.718ZM193.1 27.7048C192.892 27.2874 192.523 26.9957 192.186 26.7883C191.829 26.5687 191.387 26.3712 190.884 26.1882L190.2 28.0678C190.636 28.2262 190.94 28.3699 191.138 28.4917C191.356 28.6256 191.35 28.6753 191.312 28.5992L193.1 27.7048ZM190.897 26.193C189.529 25.6744 187.532 25.313 184.97 25.0762C182.39 24.8377 179.167 24.72 175.31 24.72V26.72C179.133 26.72 182.289 26.8369 184.786 27.0677C187.302 27.3003 189.08 27.643 190.187 28.063L190.897 26.193ZM176.31 25.72V24.44H174.31V25.72H176.31ZM175.31 25.44H225.87V23.44H175.31V25.44ZM224.87 24.44V25.72H226.87V24.44H224.87ZM225.87 24.72C222.179 24.72 218.947 24.8487 216.177 25.1084L216.363 27.0996C219.055 26.8473 222.222 26.72 225.87 26.72V24.72ZM216.174 25.1086C213.521 25.3653 211.525 25.7152 210.279 26.1947L210.997 28.0613C211.969 27.6874 213.728 27.3547 216.366 27.0993L216.174 25.1086ZM210.267 26.1995L208.987 26.7115L209.729 28.5685L211.009 28.0565L210.267 26.1995ZM208.707 26.8807C208.393 27.1498 208.186 27.5076 208.041 27.8592C207.893 28.2186 207.784 28.6369 207.702 29.0953C207.537 30.0113 207.462 31.1982 207.462 32.632H209.462C209.462 31.2498 209.536 30.1967 209.67 29.4487C209.737 29.0751 209.815 28.8054 209.891 28.6207C209.97 28.4284 210.024 28.3862 210.009 28.3993L208.707 26.8807Z" fill="#EBC8B4" mask="url(#path-1-outside-1_8_26)"/>
<line x1="141.5" x2="141.5" y2="139" stroke="#EBC8B4"/>
</svg>
