<svg width="603" height="188" viewBox="0 0 603 188" fill="none" xmlns="http://www.w3.org/2000/svg">
<path d="M22.376 86.296C22.888 87.1493 23.4 87.576 23.912 87.576C24.936 87.576 25.9173 86.9787 26.856 85.784C27.88 84.504 28.8613 82.8827 29.8 80.92C30.7387 78.9573 31.464 77.08 31.976 75.288C32.5733 73.496 33.0427 72.1307 33.384 71.192C33.4693 70.7653 33.5547 70.3813 33.64 70.04C33.8107 69.6133 33.9813 69.1867 34.152 68.76C34.3227 68.3333 34.408 67.9493 34.408 67.608C34.4933 67.1813 34.5787 66.7973 34.664 66.456C34.8347 65.2613 34.8773 64.0667 34.792 62.872C34.792 61.592 34.8347 60.3547 34.92 59.16C35.0907 57.112 35.2187 55.064 35.304 53.016C35.4747 50.8827 35.56 48.8347 35.56 46.872C35.56 44.1413 36.6267 42.136 38.76 40.856C40.8933 39.4907 43.24 38.808 45.8 38.808C48.4453 38.808 50.8347 39.4907 52.968 40.856C55.1867 42.2213 56.296 44.2693 56.296 47C56.1253 48.024 55.8693 49.6453 55.528 51.864C55.272 54.0827 54.9733 56.6 54.632 59.416C54.376 62.1467 54.1627 65.0053 53.992 67.992C53.8213 70.9787 53.736 73.752 53.736 76.312C53.8213 78.7867 54.0773 80.92 54.504 82.712C54.9307 84.504 55.5707 85.6133 56.424 86.04C57.1067 86.296 57.7467 86.424 58.344 86.424C59.88 86.424 61.3733 85.8267 62.824 84.632C64.36 83.352 65.8107 81.7733 67.176 79.896C68.6267 78.0187 69.992 75.928 71.272 73.624C72.552 71.2347 73.6613 68.9733 74.6 66.84C75.624 64.7067 76.4347 62.7867 77.032 61.08C77.7147 59.288 78.184 58.008 78.44 57.24C78.6107 56.8987 78.824 56.5573 79.08 56.216C79.336 55.7893 79.8053 55.576 80.488 55.576C81.256 55.576 81.768 55.8747 82.024 56.472C82.3653 56.984 82.536 57.5813 82.536 58.264C82.1093 59.9707 81.3413 62.1467 80.232 64.792C79.208 67.352 77.928 70.0827 76.392 72.984C74.9413 75.8 73.2347 78.6587 71.272 81.56C69.3947 84.376 67.3467 86.936 65.128 89.24C62.9093 91.544 60.6053 93.4213 58.216 94.872C55.8267 96.2373 53.352 96.92 50.792 96.92C48.232 96.92 46.0133 96.3653 44.136 95.256C42.2587 94.1467 40.68 92.696 39.4 90.904C38.2053 89.112 37.2667 87.1067 36.584 84.888C35.9013 82.6693 35.432 80.4507 35.176 78.232C34.4933 80.024 33.64 81.9867 32.616 84.12C31.6773 86.168 30.5253 88.1307 29.16 90.008C27.7947 91.8853 26.2587 93.464 24.552 94.744C22.9307 95.9387 21.1387 96.536 19.176 96.536C14.9947 96.536 11.6667 95.6827 9.192 93.976C6.71733 92.184 4.88267 89.9227 3.688 87.192C2.49333 84.4613 1.72533 81.432 1.384 78.104C1.04267 74.776 0.872 71.5333 0.872 68.376C0.872 64.7067 1 61.1227 1.256 57.624C1.59733 54.04 1.768 50.456 1.768 46.872C1.768 45.592 2.10933 44.4827 2.792 43.544C3.47467 42.52 4.37067 41.6667 5.48 40.984C6.58933 40.3013 7.82667 39.7893 9.192 39.448C10.6427 39.1067 12.0933 38.936 13.544 38.936C16.2747 38.936 18.6213 39.5333 20.584 40.728C22.632 41.9227 23.656 44.0133 23.656 47C22.9733 51.864 22.3333 56.6853 21.736 61.464C21.224 66.2427 20.968 71.064 20.968 75.928C20.968 77.6347 21.0107 79.384 21.096 81.176C21.2667 82.968 21.6933 84.6747 22.376 86.296ZM88.627 187.672C84.7017 187.672 81.0323 186.776 77.619 184.984C74.1203 183.192 71.219 180.547 68.915 177.048C66.611 173.635 65.0323 169.411 64.179 164.376C63.3257 159.427 63.539 153.837 64.819 147.608C65.7577 143 67.4643 138.477 69.939 134.04C72.4137 129.603 75.4003 125.251 78.899 120.984C82.483 116.717 86.451 112.579 90.803 108.568C95.2403 104.557 99.891 100.632 104.755 96.792C102.878 94.488 100.659 92.5253 98.099 90.904C95.539 89.1973 92.5523 87.96 89.139 87.192C88.371 87.192 87.8163 86.9787 87.475 86.552C87.219 86.1253 87.1337 85.6987 87.219 85.272C87.3043 84.76 87.5177 84.3333 87.859 83.992C88.2857 83.5653 88.8403 83.352 89.523 83.352C92.339 83.2667 94.8563 82.2427 97.075 80.28C99.379 78.3173 101.342 75.8853 102.963 72.984C104.67 69.9973 106.035 66.7973 107.059 63.384C108.083 59.9707 108.723 56.7707 108.979 53.784C109.576 47.9813 108.894 43.5867 106.931 40.6C105.054 37.6133 102.707 36.12 99.891 36.12C97.4163 36.12 94.9417 37.272 92.467 39.576C89.9923 41.88 87.9017 45.464 86.195 50.328C85.2563 52.9733 84.4883 55.6613 83.891 58.392C83.379 61.1227 82.9097 63.5547 82.483 65.688C81.971 66.2853 81.331 66.584 80.563 66.584C79.4537 66.584 78.4297 65.9867 77.491 64.792C76.5523 63.5973 76.3817 62.1467 76.979 60.44C77.3203 58.904 77.7043 57.24 78.131 55.448C78.643 53.5707 79.2403 51.6507 79.923 49.688C81.1177 46.5307 82.5257 43.8427 84.147 41.624C85.8537 39.32 87.6883 37.4853 89.651 36.12C91.699 34.6693 93.8323 33.6027 96.051 32.92C98.355 32.2373 100.616 31.896 102.835 31.896C105.822 31.896 108.68 32.408 111.411 33.432C114.142 34.456 116.531 35.9067 118.579 37.784C120.712 39.576 122.376 41.752 123.571 44.312C124.766 46.872 125.278 49.6453 125.107 52.632C125.022 55.448 124.382 58.4773 123.187 61.72C121.992 64.9627 120.328 68.12 118.195 71.192C116.147 74.264 113.672 77.08 110.771 79.64C107.87 82.1147 104.627 83.9493 101.043 85.144C105.736 86.424 109.79 88.1733 113.203 90.392C116.616 87.832 120.03 85.016 123.443 81.944C126.942 78.7867 130.355 75.6293 133.683 72.472C137.011 69.3147 140.211 66.328 143.283 63.512C146.355 60.6107 149.214 58.2213 151.859 56.344C152.115 56.088 152.414 55.96 152.755 55.96C153.523 55.96 154.12 56.472 154.547 57.496C155.059 58.4347 154.931 59.16 154.163 59.672C151.688 61.464 148.958 63.768 145.971 66.584C143.07 69.3147 139.998 72.216 136.755 75.288C133.598 78.36 130.312 81.4747 126.899 84.632C123.571 87.704 120.243 90.4773 116.915 92.952C121.096 96.1947 124.424 100.035 126.899 104.472C129.374 108.909 131.123 113.645 132.147 118.68C133.171 123.715 133.47 128.877 133.043 134.168C132.702 139.544 131.763 144.792 130.227 149.912C128.691 155.032 126.6 159.853 123.955 164.376C121.31 168.984 118.195 172.995 114.611 176.408C111.027 179.821 107.059 182.552 102.707 184.6C98.355 186.648 93.6617 187.672 88.627 187.672ZM68.915 148.376C67.9763 153.24 67.8483 157.677 68.531 161.688C69.1283 165.784 70.323 169.24 72.115 172.056C73.8217 174.957 75.955 177.133 78.515 178.584C81.1603 180.12 83.891 180.717 86.707 180.376C89.523 180.12 92.339 178.541 95.155 175.64C97.971 172.739 100.531 169.027 102.835 164.504C105.224 160.067 107.23 155.032 108.851 149.4C110.558 143.768 111.71 138.008 112.307 132.12C112.904 126.317 112.819 120.643 112.051 115.096C111.283 109.549 109.662 104.643 107.187 100.376C102.579 104.045 98.1417 107.8 93.875 111.64C89.6083 115.565 85.7683 119.533 82.355 123.544C78.9417 127.64 76.083 131.736 73.779 135.832C71.3897 140.013 69.7683 144.195 68.915 148.376ZM165.366 95C161.867 94.9147 159.051 93.7627 156.918 91.544C154.785 89.24 153.163 86.296 152.054 82.712C151.03 79.128 150.347 75.16 150.006 70.808C149.75 66.456 149.665 62.1467 149.75 57.88C149.835 53.6133 149.963 49.6453 150.134 45.976C150.39 42.3067 150.475 39.4053 150.39 37.272C150.817 35.3093 152.011 33.944 153.974 33.176C156.022 32.3227 158.283 31.896 160.758 31.896C162.209 31.896 163.617 32.024 164.982 32.28C166.433 32.536 167.67 32.92 168.694 33.432C169.803 33.944 170.699 34.5413 171.382 35.224C172.065 35.9067 172.363 36.7173 172.278 37.656V37.912C172.193 39.1067 171.937 41.0267 171.51 43.672C171.169 46.232 170.827 49.0907 170.486 52.248C170.23 55.4053 170.017 58.648 169.846 61.976C169.761 65.304 169.846 68.376 170.102 71.192C170.358 73.9227 170.87 76.184 171.638 77.976C172.491 79.6827 173.729 80.536 175.35 80.536C176.459 80.536 177.611 80.024 178.806 79C180.086 77.8907 181.323 76.312 182.518 74.264C183.798 72.216 184.95 69.784 185.974 66.968C187.083 64.0667 188.022 60.824 188.79 57.24C188.875 56.8987 189.046 56.5573 189.302 56.216C189.643 55.7893 190.155 55.576 190.838 55.576C191.521 55.576 192.033 55.832 192.374 56.344C192.715 56.7707 192.886 57.24 192.886 57.752V58.264C191.35 64.664 189.473 70.2107 187.254 74.904C185.121 79.512 182.817 83.3093 180.342 86.296C177.953 89.2827 175.435 91.5013 172.79 92.952C170.23 94.3173 167.755 95 165.366 95ZM155.766 5.016C157.729 4.67466 159.35 5.31466 160.63 6.936C161.91 8.472 162.635 10.4773 162.806 12.952C162.977 12.2693 163.318 11.416 163.83 10.392C164.427 9.28266 165.153 8.30133 166.006 7.448C166.859 6.50933 167.798 5.78399 168.822 5.272C169.931 4.67466 171.041 4.54666 172.15 4.88799C174.283 5.57066 175.393 6.89333 175.478 8.856C175.649 10.8187 175.094 12.9947 173.814 15.384C172.619 17.7733 170.913 20.2053 168.694 22.68C166.475 25.1547 164.086 27.2453 161.526 28.952C160.673 28.3547 159.649 27.416 158.454 26.136C157.345 24.7707 156.235 23.2773 155.126 21.656C154.102 19.9493 153.206 18.2 152.438 16.408C151.755 14.5307 151.329 12.824 151.158 11.288C151.073 9.66666 151.371 8.30133 152.054 7.19199C152.737 6.08266 153.974 5.35733 155.766 5.016ZM208.733 33.816C208.733 36.0347 208.69 38.2533 208.605 40.472C208.605 42.6907 208.605 44.9093 208.605 47.128C210.226 42.1787 212.573 38.424 215.645 35.864C218.717 33.2187 222.898 31.896 228.189 31.896C232.797 31.896 236.68 33.048 239.837 35.352C243.08 37.656 245.469 41.112 247.005 45.72C248.712 41.112 251.101 37.656 254.173 35.352C257.245 33.048 261.256 31.896 266.205 31.896C273.117 31.896 278.365 34.4987 281.949 39.704C285.618 44.9093 287.282 52.5893 286.941 62.744C286.856 65.1333 286.856 67.48 286.941 69.784C287.112 72.0027 287.368 73.9653 287.709 75.672C288.136 77.2933 288.69 78.616 289.373 79.64C290.141 80.664 291.122 81.176 292.317 81.176C293.426 81.176 294.578 80.664 295.773 79.64C297.053 78.5307 298.29 76.952 299.485 74.904C300.765 72.856 301.917 70.424 302.941 67.608C304.05 64.7067 304.989 61.464 305.757 57.88C305.842 57.5387 306.013 57.1973 306.269 56.856C306.61 56.4293 307.122 56.216 307.805 56.216C308.488 56.216 309 56.472 309.341 56.984C309.682 57.4107 309.853 57.88 309.853 58.392V58.904C308.317 65.304 306.44 70.8507 304.221 75.544C302.088 80.152 299.784 83.9493 297.309 86.936C294.92 89.9227 292.402 92.1413 289.757 93.592C287.197 94.9573 284.722 95.64 282.333 95.64C278.152 95.5547 274.61 93.464 271.709 89.368C268.808 85.272 267.272 79.384 267.101 71.704C267.186 70.5947 267.229 68.9733 267.229 66.84C267.314 64.6213 267.357 62.232 267.357 59.672C267.357 57.0267 267.272 54.3387 267.101 51.608C266.93 48.8773 266.632 46.4027 266.205 44.184C265.864 41.9653 265.309 40.1733 264.541 38.808C263.858 37.3573 262.92 36.6747 261.725 36.76C259.848 36.8453 258.184 37.4 256.733 38.424C255.282 39.3627 254.045 40.6427 253.021 42.264C251.997 43.8 251.144 45.592 250.461 47.64C249.778 49.688 249.224 51.864 248.797 54.168C248.968 55.5333 249.053 56.9413 249.053 58.392C249.138 59.7573 249.138 61.208 249.053 62.744C248.968 65.9867 249.01 69.016 249.181 71.832C249.437 74.5627 249.992 76.7813 250.845 78.488C250.845 80.536 249.778 82.072 247.645 83.096C245.512 84.12 243.122 84.632 240.477 84.632C239.112 84.632 237.789 84.504 236.509 84.248C235.229 83.9067 234.077 83.48 233.053 82.968C232.029 82.3707 231.176 81.6453 230.493 80.792C229.896 79.8533 229.64 78.8293 229.725 77.72C229.554 76.7813 229.426 75.8427 229.341 74.904C229.341 73.88 229.298 72.8133 229.213 71.704C229.298 70.5947 229.341 68.9733 229.341 66.84C229.426 64.6213 229.469 62.232 229.469 59.672C229.469 57.0267 229.384 54.3387 229.213 51.608C229.042 48.8773 228.744 46.4027 228.317 44.184C227.976 41.9653 227.421 40.1733 226.653 38.808C225.97 37.3573 225.032 36.6747 223.837 36.76C221.704 36.8453 219.826 37.528 218.205 38.808C216.669 40.0027 215.346 41.5813 214.237 43.544C213.213 45.5067 212.36 47.768 211.677 50.328C211.08 52.8027 210.568 55.3627 210.141 58.008C209.8 60.6533 209.501 63.256 209.245 65.816C209.074 68.376 208.904 70.7227 208.733 72.856C208.818 75.7573 208.904 78.6587 208.989 81.56C209.074 84.376 209.202 87.2773 209.373 90.264C209.288 91.1173 208.861 91.928 208.093 92.696C207.325 93.3787 206.386 93.9333 205.277 94.36C204.253 94.7867 203.058 95.128 201.693 95.384C200.328 95.64 199.005 95.768 197.725 95.768C195.506 95.768 193.501 95.4267 191.709 94.744C189.917 93.976 188.978 92.824 188.893 91.288C188.381 81.4747 188.125 71.8747 188.125 62.488C188.04 53.1013 188.082 43.7147 188.253 34.328C187.997 33.6453 188.125 33.0907 188.637 32.664C189.149 32.2373 189.874 31.8533 190.813 31.512C191.752 31.1707 192.861 30.9573 194.141 30.872C195.421 30.7013 196.744 30.616 198.109 30.616C199.474 30.616 200.797 30.7013 202.077 30.872C203.442 30.9573 204.594 31.1707 205.533 31.512C206.557 31.768 207.368 32.1093 207.965 32.536C208.562 32.8773 208.818 33.304 208.733 33.816ZM339.435 45.08C339.008 43.544 338.368 42.264 337.515 41.24C336.662 40.216 335.424 39.6187 333.803 39.448H333.291C331.414 39.448 329.792 40.6 328.427 42.904C327.062 45.208 325.952 48.1093 325.099 51.608C324.246 55.0213 323.691 58.776 323.435 62.872C323.179 66.8827 323.222 70.5947 323.563 74.008C323.904 77.4213 324.544 80.28 325.483 82.584C326.507 84.8027 327.787 85.8693 329.323 85.784C330.518 85.6987 331.67 84.4613 332.779 82.072C333.974 79.6827 335.04 76.9947 335.979 74.008C336.918 70.936 337.686 67.992 338.283 65.176C338.966 62.36 339.35 60.5253 339.435 59.672C339.52 59.2453 339.606 58.3067 339.691 56.856C339.776 55.4053 339.819 53.8693 339.819 52.248C339.904 50.5413 339.904 49.0053 339.819 47.64C339.819 46.1893 339.691 45.336 339.435 45.08ZM340.075 71.064C339.478 72.6853 338.838 74.8187 338.155 77.464C337.558 80.024 336.704 82.5413 335.595 85.016C334.571 87.4907 333.248 89.7093 331.627 91.672C330.091 93.5493 328.086 94.6587 325.611 95C321.942 95.512 318.742 95 316.011 93.464C313.28 91.8427 310.976 89.624 309.099 86.808C307.307 83.992 305.942 80.664 305.003 76.824C304.15 72.984 303.766 69.0587 303.851 65.048C303.936 60.952 304.534 56.9413 305.643 53.016C306.752 49.0907 308.331 45.592 310.379 42.52C312.427 39.3627 314.987 36.8453 318.059 34.968C321.216 33.0053 324.843 31.9813 328.939 31.896C331.158 31.8107 333.248 32.2373 335.211 33.176C337.174 34.0293 338.88 35.3947 340.331 37.272C340.758 35.3093 341.952 33.944 343.915 33.176C345.963 32.3227 348.224 31.896 350.699 31.896C352.15 31.896 353.558 32.024 354.923 32.28C356.374 32.536 357.611 32.92 358.635 33.432C359.744 33.944 360.64 34.5413 361.323 35.224C362.006 35.9067 362.304 36.7173 362.219 37.656V37.912C362.134 39.1067 361.878 41.0267 361.451 43.672C361.11 46.232 360.768 49.0907 360.427 52.248C360.171 55.4053 359.958 58.648 359.787 61.976C359.702 65.304 359.787 68.376 360.043 71.192C360.299 73.9227 360.811 76.184 361.579 77.976C362.432 79.6827 363.67 80.536 365.291 80.536C366.4 80.536 367.552 80.024 368.747 79C370.027 77.8907 371.264 76.312 372.459 74.264C373.739 72.216 374.891 69.784 375.915 66.968C377.024 64.0667 377.963 60.824 378.731 57.24C378.816 56.8987 378.987 56.5573 379.243 56.216C379.584 55.7893 380.096 55.576 380.779 55.576C381.547 55.576 382.059 55.8747 382.315 56.472C382.656 56.984 382.827 57.5813 382.827 58.264C381.291 64.664 379.414 70.2107 377.195 74.904C375.062 79.512 372.758 83.3093 370.283 86.296C367.894 89.2827 365.376 91.5013 362.731 92.952C360.171 94.3173 357.696 95 355.307 95C351.126 94.9147 347.584 92.824 344.683 88.728C341.782 84.632 340.246 78.744 340.075 71.064ZM457.351 71.704C457.436 70.5947 457.479 68.9733 457.479 66.84C457.564 64.6213 457.607 62.232 457.607 59.672C457.607 57.0267 457.522 54.3387 457.351 51.608C457.18 48.8773 456.882 46.4027 456.455 44.184C456.114 41.9653 455.559 40.1733 454.791 38.808C454.108 37.3573 453.17 36.6747 451.975 36.76C450.098 36.8453 448.434 37.4 446.983 38.424C445.532 39.3627 444.295 40.6427 443.271 42.264C442.247 43.8 441.394 45.592 440.711 47.64C440.028 49.688 439.474 51.864 439.047 54.168C439.218 55.5333 439.303 56.9413 439.303 58.392C439.388 59.7573 439.388 61.208 439.303 62.744C439.218 65.9867 439.26 69.016 439.431 71.832C439.687 74.5627 440.242 76.7813 441.095 78.488C441.095 80.536 440.028 82.072 437.895 83.096C435.762 84.12 433.372 84.632 430.727 84.632C429.362 84.632 428.039 84.504 426.759 84.248C425.479 83.9067 424.327 83.48 423.303 82.968C422.279 82.3707 421.426 81.6453 420.743 80.792C420.146 79.8533 419.89 78.8293 419.975 77.72C419.804 76.7813 419.676 75.8427 419.591 74.904C419.591 73.88 419.548 72.8133 419.463 71.704C419.548 70.5947 419.591 68.9733 419.591 66.84C419.676 64.6213 419.719 62.232 419.719 59.672C419.719 57.0267 419.634 54.3387 419.463 51.608C419.292 48.8773 418.994 46.4027 418.567 44.184C418.226 41.9653 417.671 40.1733 416.903 38.808C416.22 37.3573 415.282 36.6747 414.087 36.76C411.954 36.8453 410.076 37.528 408.455 38.808C406.919 40.0027 405.596 41.5813 404.487 43.544C403.463 45.5067 402.61 47.768 401.927 50.328C401.33 52.8027 400.818 55.3627 400.391 58.008C400.05 60.6533 399.751 63.256 399.495 65.816C399.324 68.376 399.154 70.7227 398.983 72.856C399.068 75.7573 399.154 78.6587 399.239 81.56C399.324 84.376 399.452 87.2773 399.623 90.264C399.538 91.1173 399.111 91.928 398.343 92.696C397.575 93.3787 396.636 93.9333 395.527 94.36C394.503 94.7867 393.308 95.128 391.943 95.384C390.578 95.64 389.255 95.768 387.975 95.768C385.756 95.768 383.751 95.4267 381.959 94.744C380.167 93.976 379.228 92.824 379.143 91.288C378.631 81.4747 378.375 71.8747 378.375 62.488C378.29 53.1013 378.332 43.7147 378.503 34.328C378.247 33.6453 378.375 33.0907 378.887 32.664C379.399 32.2373 380.124 31.8533 381.063 31.512C382.002 31.1707 383.111 30.9573 384.391 30.872C385.671 30.7013 386.994 30.616 388.359 30.616C389.724 30.616 391.047 30.7013 392.327 30.872C393.692 30.9573 394.844 31.1707 395.783 31.512C396.807 31.768 397.618 32.1093 398.215 32.536C398.812 32.8773 399.068 33.304 398.983 33.816C398.983 36.0347 398.94 38.2533 398.855 40.472C398.855 42.6907 398.855 44.9093 398.855 47.128C400.476 42.1787 402.823 38.424 405.895 35.864C408.967 33.2187 413.148 31.896 418.439 31.896C423.047 31.896 426.93 33.048 430.087 35.352C433.33 37.656 435.719 41.112 437.255 45.72C438.962 41.112 441.351 37.656 444.423 35.352C447.495 33.048 451.506 31.896 456.455 31.896C463.367 31.896 468.615 34.4987 472.199 39.704C475.868 44.9093 477.532 52.5893 477.191 62.744C477.191 66.584 477.319 70.6373 477.575 74.904C477.916 79.0853 478.514 83.224 479.367 87.32C480.306 91.3307 481.543 95.128 483.079 98.712C484.7 102.381 486.791 105.581 489.351 108.312C491.911 111.043 494.983 113.219 498.567 114.84C502.151 116.461 506.418 117.272 511.367 117.272H513.287C519.516 117.016 525.106 115.779 530.055 113.56C535.004 111.427 539.356 108.568 543.111 104.984C546.866 101.485 550.023 97.432 552.583 92.824C555.228 88.1307 557.276 83.1813 558.727 77.976C560.178 72.7707 561.074 67.4373 561.415 61.976C561.756 56.4293 561.586 51.0533 560.903 45.848C558.172 45.1653 555.271 44.6533 552.199 44.312C549.127 43.9707 545.842 43.8 542.343 43.8C540.722 43.8 539.058 43.8427 537.351 43.928C535.73 44.0133 534.066 44.1413 532.359 44.312C529.799 44.568 527.41 44.696 525.191 44.696C517.767 44.696 511.794 43.5867 507.271 41.368C502.748 39.1493 499.506 36.376 497.543 33.048C495.58 29.72 494.77 26.136 495.111 22.296C495.538 18.3707 496.946 14.7867 499.335 11.544C501.724 8.30133 505.01 5.61333 509.191 3.48C513.372 1.34666 518.236 0.322665 523.783 0.407997C530.098 0.407997 535.772 1.56 540.807 3.864C545.842 6.16799 550.194 9.32533 553.863 13.336C557.618 17.2613 560.69 21.8693 563.079 27.16C565.468 32.4507 567.175 38.04 568.199 43.928C574.087 45.8907 579.164 48.536 583.431 51.864C587.783 55.1067 591.367 58.8187 594.183 63C597.084 67.096 599.218 71.5333 600.583 76.312C601.948 81.0053 602.546 85.8693 602.375 90.904C602.204 97.9867 600.54 104.899 597.383 111.64C594.311 118.467 589.831 124.568 583.943 129.944C578.055 135.32 570.802 139.629 562.183 142.872C553.65 146.2 543.794 147.864 532.615 147.864C524.935 147.864 517.98 147.309 511.751 146.2C505.522 145.091 499.762 143.597 494.471 141.72C489.266 139.928 484.402 137.837 479.879 135.448C475.356 133.144 471.004 130.797 466.823 128.408C462.642 126.019 458.503 123.672 454.407 121.368C450.396 119.064 446.13 117.016 441.607 115.224C436.231 113.005 430.94 111.384 425.735 110.36C420.53 109.421 414.983 108.952 409.095 108.952C401.415 108.952 394.93 109.763 389.639 111.384C384.348 113.005 380.082 115.096 376.839 117.656C373.511 120.216 371.164 123.117 369.799 126.36C368.434 129.603 367.836 132.845 368.007 136.088C368.178 139.416 369.116 142.701 370.823 145.944C372.53 149.187 374.919 152.088 377.991 154.648C380.978 157.208 384.604 159.256 388.871 160.792C393.138 162.413 397.959 163.224 403.335 163.224C414.258 163.224 423.815 159.555 432.007 152.216C432.434 151.789 432.818 151.576 433.159 151.576C433.842 151.576 434.396 151.96 434.823 152.728C435.335 153.581 435.25 154.349 434.567 155.032C430.044 159.213 425.18 162.243 419.975 164.12C414.855 166.083 409.223 167.064 403.079 167.064C397.362 167.064 392.156 166.168 387.463 164.376C382.77 162.669 378.716 160.365 375.303 157.464C371.89 154.648 369.244 151.363 367.367 147.608C365.404 143.939 364.295 140.141 364.039 136.216C363.783 132.205 364.508 128.323 366.215 124.568C367.922 120.813 370.652 117.485 374.407 114.584C378.076 111.768 382.812 109.464 388.615 107.672C394.503 105.965 401.458 105.112 409.479 105.112C415.538 105.112 421.084 105.581 426.119 106.52C431.154 107.544 435.975 108.909 440.583 110.616C445.276 112.408 449.884 114.499 454.407 116.888C458.93 119.363 463.708 122.051 468.743 124.952C472.839 127.341 477.063 129.645 481.415 131.864C485.852 134.168 490.631 136.216 495.751 138.008C500.871 139.8 506.418 141.208 512.391 142.232C518.45 143.341 525.191 143.896 532.615 143.896C543.282 143.896 552.668 142.317 560.775 139.16C568.967 136.088 575.794 132.035 581.255 127C586.802 121.965 590.983 116.248 593.799 109.848C596.7 103.533 598.236 97.176 598.407 90.776C598.492 86.424 597.98 82.1573 596.871 77.976C595.762 73.7093 593.97 69.7413 591.495 66.072C589.106 62.3173 585.991 58.904 582.151 55.832C578.396 52.76 573.959 50.2427 568.839 48.28C569.436 53.7413 569.436 59.3307 568.839 65.048C568.327 70.68 567.175 76.184 565.383 81.56C563.591 86.8507 561.159 91.8427 558.087 96.536C555.1 101.229 551.431 105.368 547.079 108.952C542.812 112.536 537.863 115.395 532.231 117.528C526.599 119.661 520.284 120.856 513.287 121.112H511.111C503.772 121.112 496.775 119.875 490.119 117.4C483.548 115.011 477.788 111.64 472.839 107.288C467.975 102.936 464.135 97.7307 461.319 91.672C458.503 85.6133 457.18 78.9573 457.351 71.704ZM560.135 41.752C559.111 36.632 557.575 31.8107 555.527 27.288C553.564 22.68 551.047 18.712 547.975 15.384C544.903 11.9707 541.362 9.28266 537.351 7.31999C533.34 5.35733 528.818 4.376 523.783 4.376C519.09 4.29066 514.951 5.14399 511.367 6.936C507.783 8.64266 504.967 10.8613 502.919 13.592C500.871 16.3227 499.634 19.2667 499.207 22.424C498.866 25.5813 499.548 28.5253 501.255 31.256C502.962 33.9867 505.778 36.2907 509.703 38.168C513.628 39.96 518.876 40.856 525.447 40.856C527.495 40.856 529.714 40.728 532.103 40.472C533.81 40.3013 535.474 40.1733 537.095 40.088C538.802 40.0027 540.466 39.96 542.087 39.96C548.402 39.96 554.418 40.5573 560.135 41.752Z" fill="white"/>
</svg>
