<svg width="185" height="139" viewBox="0 0 185 139" fill="none" xmlns="http://www.w3.org/2000/svg">
<line x1="126.5" x2="126.5" y2="139" stroke="#EBC8B4"/>
<path d="M4.864 27.32L4.992 25.4H21.888L52.48 90.296L82.56 25.4H99.456C99.456 25.5707 99.4987 25.8693 99.584 26.296C99.6693 26.7227 99.6693 27.064 99.584 27.32L92.8 28.088C91.9467 28.1733 91.4347 28.728 91.264 29.752V112.568L100.736 113.08C100.736 113.165 100.693 113.805 100.608 115L74.88 115.128L75.008 113.336L81.664 112.44C82.5173 112.355 83.0293 111.843 83.2 110.904V30.008L54.016 93.112L51.456 98.232H48.512L16.128 29.88V112.312L30.72 113.08C30.72 113.165 30.6773 113.805 30.592 115L4.864 115.128L4.992 113.336L11.648 112.44C12.5013 112.355 13.0133 111.8 13.184 110.776V29.752C13.0133 28.728 12.5013 28.1733 11.648 28.088L4.864 27.32Z" fill="#EBC8B4"/>
<path d="M152.4 115.128L152.528 113.336L159.184 112.44C160.037 112.355 160.549 111.8 160.72 110.776H160.848V29.88H160.72C160.549 28.7707 160.037 28.1733 159.184 28.088L152.528 27.448L152.4 25.528L178.128 25.4C178.128 25.4853 178.171 26.1253 178.256 27.32L169.552 28.088V112.568L178.256 113.08C178.256 113.165 178.213 113.805 178.128 115L152.4 115.128Z" fill="#EBC8B4"/>
</svg>
